<?xml version="1.0" encoding="UTF-8" standalone="no"?>
<svg
   xmlns:dc="http://purl.org/dc/elements/1.1/"
   xmlns:cc="http://creativecommons.org/ns#"
   xmlns:rdf="http://www.w3.org/1999/02/22-rdf-syntax-ns#"
   xmlns:svg="http://www.w3.org/2000/svg"
   xmlns="http://www.w3.org/2000/svg"
   xmlns:sodipodi="http://sodipodi.sourceforge.net/DTD/sodipodi-0.dtd"
   xmlns:inkscape="http://www.inkscape.org/namespaces/inkscape"
   height="800"
   width="1200"
   inkscape:version="0.91 r13725"
   sodipodi:docname="clock.svg"
   id="svg4274"
   version="1.1">
  <metadata
     id="metadata4372">
    <rdf:RDF>
      <cc:Work
         rdf:about="">
        <dc:format>image/svg+xml</dc:format>
        <dc:type
           rdf:resource="http://purl.org/dc/dcmitype/StillImage" />
        <dc:title></dc:title>
      </cc:Work>
    </rdf:RDF>
  </metadata>
  <defs
     id="defs110">
    <marker
       inkscape:stockid="Arrow1Send"
       orient="auto"
       refY="0.0"
       refX="0.0"
       id="Arrow1Send"
       style="overflow:visible;"
       inkscape:isstock="true">
      <path
         id="path4799"
         d="M 0.0,0.0 L 5.0,-5.0 L -12.5,0.0 L 5.0,5.0 L 0.0,0.0 z "
         style="fill-rule:evenodd;stroke:#e6e6e6;stroke-width:1pt;stroke-opacity:1;fill:#e6e6e6;fill-opacity:1"
         transform="scale(0.2) rotate(180) translate(6,0)" />
    </marker>
    <marker
       inkscape:stockid="Arrow1Mend"
       orient="auto"
       refY="0.0"
       refX="0.0"
       id="Arrow1Mend"
       style="overflow:visible;"
       inkscape:isstock="true">
      <path
         id="path4793"
         d="M 0.0,0.0 L 5.0,-5.0 L -12.5,0.0 L 5.0,5.0 L 0.0,0.0 z "
         style="fill-rule:evenodd;stroke:#e6e6e6;stroke-width:1pt;stroke-opacity:1;fill:#e6e6e6;fill-opacity:1"
         transform="scale(0.4) rotate(180) translate(10,0)" />
    </marker>
    <marker
       inkscape:stockid="Arrow1Lstart"
       orient="auto"
       refY="0.0"
       refX="0.0"
       id="Arrow1Lstart"
       style="overflow:visible"
       inkscape:isstock="true">
      <path
         id="path4784"
         d="M 0.0,0.0 L 5.0,-5.0 L -12.5,0.0 L 5.0,5.0 L 0.0,0.0 z "
         style="fill-rule:evenodd;stroke:#f9f9f9;stroke-width:1pt;stroke-opacity:1;fill:#f9f9f9;fill-opacity:1"
         transform="scale(0.8) translate(12.5,0)" />
    </marker>
    <marker
       inkscape:stockid="Arrow2Mend"
       orient="auto"
       refY="0.0"
       refX="0.0"
       id="Arrow2Mend"
       style="overflow:visible;"
       inkscape:isstock="true">
      <path
         id="path4811"
         style="fill-rule:evenodd;stroke-width:0.625;stroke-linejoin:round;stroke:#f9f9f9;stroke-opacity:1;fill:#f9f9f9;fill-opacity:1"
         d="M 8.7185878,4.0337352 L -2.2072895,0.016013256 L 8.7185884,-4.0017078 C 6.9730900,-1.6296469 6.9831476,1.6157441 8.7185878,4.0337352 z "
         transform="scale(0.6) rotate(180) translate(0,0)" />
    </marker>
    <marker
       inkscape:stockid="Arrow1Lend"
       orient="auto"
       refY="0.0"
       refX="0.0"
       id="Arrow1Lend"
       style="overflow:visible;"
       inkscape:isstock="true">
      <path
         id="path4787"
         d="M 0.0,0.0 L 5.0,-5.0 L -12.5,0.0 L 5.0,5.0 L 0.0,0.0 z "
         style="fill-rule:evenodd;stroke:#f9f9f9;stroke-width:1pt;stroke-opacity:1;fill:#f9f9f9;fill-opacity:1"
         transform="scale(0.8) rotate(180) translate(12.5,0)" />
    </marker>
  </defs>
  <sodipodi:namedview
     pagecolor="#ffffff"
     bordercolor="#666666"
     borderopacity="1"
     objecttolerance="10"
     gridtolerance="10"
     guidetolerance="10"
     inkscape:pageopacity="0"
     inkscape:pageshadow="2"
     inkscape:window-width="1440"
     inkscape:window-height="851"
     id="namedview108"
     showgrid="false"
     inkscape:zoom="0.834386"
     inkscape:cx="266.98592"
     inkscape:cy="189.09303"
     inkscape:window-x="0"
     inkscape:window-y="1"
     inkscape:window-maximized="1"
     inkscape:current-layer="svg4274"
     showguides="true">
    <inkscape:grid
       type="xygrid"
       id="grid4776" />
  </sodipodi:namedview>
  <circle
     transform="matrix(0.96592583,-0.25881905,0.25881905,0.96592583,0,0)"
     style="fill:#e6e6e6;fill-opacity:1;stroke:none;stroke-width:7.63020992;stroke-miterlimit:4;stroke-dasharray:none"
     id="circle5282"
     cx="145.67128"
     cy="569.09393"
     r="288" />
  <path
     style="fill:#1a1a1a;fill-opacity:1;stroke:none;stroke-width:7.63020992;stroke-miterlimit:4;stroke-dasharray:none"
     d="M 576,512.00002 C 576.00001,671.05803 447.05801,800.00003 288,800.00003 128.94199,800.00003 9.6713972e-7,671.05804 9.671397e-7,512.00003 Z"
     id="circle6904"
     inkscape:connector-curvature="0"
     sodipodi:nodetypes="cscc" />
  <circle
     r="272"
     cy="569.09393"
     cx="145.67133"
     id="circle4476"
     style="fill:#e6e6e6;stroke:#1a1a1a;stroke-width:0.1;stroke-miterlimit:4;stroke-dasharray:none"
     transform="matrix(0.96592583,-0.25881905,0.25881905,0.96592583,0,0)" />
  <circle
     style="fill:#1a1a1a;stroke:none;stroke-width:7.63020992;stroke-miterlimit:4;stroke-dasharray:none"
     id="path4378"
     cx="288"
     cy="512"
     r="256" />
  <g
     id="g4380"
     style="fill:#e6e6e6"
     transform="translate(32.018026,-32.017989)">
    <polygon
       style="fill:#e6e6e6"
       points="524.04,216.67 522.77,216.72 522.83,218.22 524.11,218.16 "
       transform="matrix(1.216996,0,0,1.2351242,-367.09997,217.07964)"
       id="polygon59" />
    <rect
       style="fill:#e6e6e6"
       x="266.84271"
       y="482.22958"
       width="2.0627606"
       height="1.5723519"
       id="rect61" />
    <polygon
       style="fill:#e6e6e6"
       points="517.85,214.23 519.34,214.45 519.52,213.19 518.03,212.98 "
       transform="matrix(1.216996,0,0,1.2351242,-367.09997,217.07964)"
       id="polygon63" />
    <rect
       style="fill:#e6e6e6"
       x="-325.92294"
       y="-438.78363"
       width="1.8211994"
       height="1.5743766"
       transform="matrix(-0.98971394,-0.14306057,0.13896953,-0.99029666,0,0)"
       id="rect65" />
    <rect
       style="fill:#e6e6e6"
       x="246.71069"
       y="479.07617"
       width="2.0627606"
       height="1.5735947"
       id="rect67" />
    <polygon
       style="fill:#e6e6e6"
       points="500.67,214.66 502.15,214.87 502.33,213.61 500.85,213.4 "
       transform="matrix(1.216996,0,0,1.2351242,-367.09997,217.07964)"
       id="polygon69" />
    <rect
       style="fill:#e6e6e6"
       x="-351.4324"
       y="-409.96036"
       width="2.1351466"
       height="1.5709476"
       transform="matrix(-0.96919103,-0.24631026,0.23955094,-0.9708838,0,0)"
       id="rect71" />
    <rect
       style="fill:#e6e6e6"
       x="-519.36389"
       y="157.22853"
       width="1.5939527"
       height="1.5511384"
       transform="matrix(-0.16105914,-0.98694476,0.98616623,-0.16575937,0,0)"
       id="rect73" />
    <polygon
       style="fill:#e6e6e6"
       points="330.58,347.28 330.58,346.22 329.52,346.22 329.52,348.34 331.22,348.34 331.22,351.1 332.5,351.1 332.28,347.92 "
       transform="matrix(1.216996,0,0,1.2351242,-367.09997,217.07964)"
       id="polygon75" />
    <polygon
       style="fill:#e6e6e6"
       points="346.5,366.16 344.17,364.04 342.47,361.71 341.62,359.8 340.13,355.98 343.31,357.46 344.38,360.43 345.86,361.5 347.35,364.68 "
       transform="matrix(1.216996,0,0,1.2351242,-367.09997,217.07964)"
       id="polygon77" />
    <polygon
       style="fill:#e6e6e6"
       points="390.42,423.03 390.21,421.12 388.51,418.57 391.06,419 393.81,421.33 394.88,424.09 393.39,424.94 392.54,423.67 "
       transform="matrix(1.216996,0,0,1.2351242,-367.09997,217.07964)"
       id="polygon79" />
    <path
       inkscape:connector-curvature="0"
       style="fill:#e6e6e6"
       d="m 247.99999,501.616 -2.83931,0 -0.51722,-5.76436 1.54922,-1.05234 0,-2.88155 -9.03861,0 -0.25801,-2.88032 1.29489,-0.78678 -2.06882,-0.78677 -1.55045,2.09476 -0.51236,2.35915 -2.58361,0.52616 0,1.308 -1.80599,0 0,3.40646 -7.23263,6.0275 -14.45905,-0.52123 c -1.03686,2.35667 -3.62051,-0.26555 -3.62051,-0.26555 -0.51236,-1.57111 -4.12552,0 -4.12552,0 0,2.88653 -4.90688,-1.308 -4.90688,-1.308 l -9.03986,-6.55364 c -5.16366,-4.7169 -12.90985,1.31294 -13.16662,2.6209 0.25677,3.6696 -5.93896,0.78678 -5.93896,0.78678 0,0 -5.16366,-1.57111 -5.94021,0.52617 -0.77278,2.09476 -4.1353,1.5736 -4.1353,1.5736 l -0.51722,1.04738 -2.58362,0.52369 -0.51236,1.57111 -3.1009,0.52617 7.74495,-0.26308 c 2.06773,-0.26184 -0.77644,4.45639 -2.064,4.19449 l -3.61197,0.26184 -1.29489,1.30801 -3.35643,0 -1.54801,2.10097 -4.90331,-0.26308 c 0,0 -2.84412,2.35791 -2.58237,3.14346 0.25799,0.78677 -0.51722,3.14595 -1.29367,3.14595 -0.77523,0 -2.32451,2.3579 -1.80723,3.14346 0.51966,0.78676 -1.54801,3.40769 -1.54801,3.40769 l -0.51478,2.62339 -1.54801,0.52122 0,7.0773 -3.1009,2.09724 0,3.14346 -4.65134,4.98005 0.51964,4.19076 -3.87123,4.19449 0.51236,4.19325 -2.32327,0.78677 -0.51357,1.8341 -1.032,5.50121 2.58129,0.26556 c 1.28756,-0.52617 1.032,3.40645 0,3.92761 -1.03688,0.52617 -3.87729,1.57235 -2.32451,2.61966 1.55045,1.05233 -4.13298,0.78801 -4.13298,-0.78554 0,-1.56863 -3.09965,-2.88156 -3.87123,-2.35542 -0.77643,0.52123 -2.06882,-2.35915 -2.06882,-2.35915 -2.8393,-2.88156 -11.61974,0.26061 -11.61974,0.26061 l -1.29487,4.19325 c -2.83682,0.52617 -4.64405,5.24304 -4.64405,5.24304 -2.3245,0.78678 -4.13173,3.66711 -3.35643,4.45391 0.77279,0.78678 -1.29488,1.04738 -1.29488,1.04738 l 0,5.76808 -1.2888,1.8341 0.25557,6.28801 c 1.55166,0 1.29488,2.88529 1.29488,2.88529 -2.58361,0.2606 -2.07006,3.6696 -2.07006,3.6696 l -5.42043,1.83301 -1.032,1.57111 -6.71287,-0.26308 -1.80723,1.83658 -1.81204,-1.83658 -12.91093,0 -0.51236,-1.30924 -2.58361,-0.5274 -0.26045,-2.88031 -3.87122,0.26061 -0.774,1.57235 -4.13407,0.26062 c 0.25801,2.62214 -4.13173,6.55488 -4.64404,5.50867 -0.52331,-1.04987 -3.36125,-3.93632 -2.06773,-4.45516 1.29244,-0.52739 4.65134,-1.05356 4.65134,-1.05356 l 0,-1.83286 -9.55822,-0.26061 -1.02958,1.5736 -3.87853,0.25937 0,4.19449 -1.80474,0.52492 c -1.29366,0.78307 0.25558,3.6696 0.25558,3.6696 1.80722,1.83177 -0.25558,4.71317 -0.25558,4.71317 -1.55166,1.5736 1.28758,4.46013 1.28758,4.46013 2.06882,0.51998 -1.28758,2.09351 -1.28758,2.09351 0.51235,2.61966 2.064,3.40646 2.064,3.40646 -1.55166,2.61965 1.03688,3.92777 1.03688,3.92777 l 0.25556,4.45997 1.80723,1.04986 0,2.87659 1.03202,1.83659 4.13173,0 -0.25799,-6.55116 c -3.61693,-4.19449 3.09609,-5.24304 3.35892,-3.67333 0.26043,1.5736 3.09966,2.3604 3.09966,2.3604 0.51722,3.93258 4.90812,6.288 6.19573,2.36147 1.29245,-3.93631 2.32451,-1.57359 3.09966,0.25815 0.77522,1.83658 5.67597,6.29298 5.67597,6.29298 l 3.87604,0 0.51965,3.6696 c 4.38851,-0.26309 5.67612,0.26678 7.48335,6.28801 1.81204,6.02502 6.71535,7.59845 6.71535,7.59845 l 3.61693,-0.26184 c 0,-3.13973 3.6157,0.52987 3.6157,2.10346 0,1.56614 6.97088,7.59473 6.97088,7.59473 l 6.96965,1.56987 6.46338,5.24801 4.90207,-0.52494 2.06882,0 c 1.28757,-4.45997 7.48817,0.25814 8.00048,1.83177 0.52087,1.57359 4.65134,4.19449 5.16366,2.88155 0.51964,-1.30801 3.35891,-0.51998 3.87728,3.40646 0.5148,3.93631 2.31954,3.14827 2.31954,3.14827 l 14.72189,-0.26184 5.16365,-4.46012 13.17144,-0.25815 c 6.71287,-0.26184 2.58129,-9.43628 1.29366,-9.43628 -2.32451,-1.83177 0.77157,-9.43272 0.77157,-9.43272 l -18.85051,-17.55808 c -4.38851,0 -0.51722,-6.29298 -0.51722,-6.29298 3.35643,-2.09849 -0.77644,-5.49997 -0.77644,-5.49997 0.51965,-3.14952 -1.80722,-6.81787 -1.80722,-6.81787 -4.64405,-3.14471 -3.35644,-9.17454 -3.35644,-9.17454 l 0,-4.19449 c -3.87123,-3.66463 1.55044,-4.1945 1.55044,-4.1945 1.80474,-3.13849 -1.29366,-5.49872 -1.29366,-5.49872 l -0.25678,-3.4077 -4.13297,-0.52617 -0.51236,-12.31784 -9.29539,-13.36282 c -1.81205,-0.52863 -0.51966,-3.66959 -0.51966,-3.66959 2.32451,-1.31171 -0.51966,-4.45267 -0.51966,-4.45267 l -0.25678,-5.76684 5.42044,-0.5274 1.29365,-2.09352 2.58129,0 -0.25678,-6.81539 c 1.28879,-3.40645 4.38727,-1.57359 4.38727,-1.57359 l 3.61569,0.26308 2.06774,-3.93134 0.51235,-3.14595 -2.83682,-0.25937 c -3.09965,-1.83659 -1.55045,-8.6484 -1.55045,-8.6484 4.90689,-7.34044 10.5841,-3.14704 10.5841,-3.14704 l 3.61927,-0.25938 c 5.42043,3.66711 0.51235,10.48126 0.51235,10.48126 -1.032,1.57359 -0.51235,6.55239 -0.51235,6.55239 l 1.28879,8.38277 -3.35643,2.88653 c -2.83931,1.5736 -2.83931,5.24055 0.26043,6.02735 2.064,0.25937 1.28879,5.24071 -1.81096,1.83301 -4.64404,0 2.58735,4.19325 0.51966,3.14098 4.6501,2.36039 3.61197,-2.09476 3.61197,-2.09476 l 6.20304,-4.98005 c 2.3245,-1.83301 6.45733,3.93383 6.45733,4.72063 0,0.78554 10.32731,0.25937 10.32731,0.25937 2.83931,1.8341 3.87123,6.55364 3.87123,6.55364 2.84412,-3.67208 8.7806,-0.26553 4.39209,1.83302 4.128,2.62089 4.128,4.9788 4.128,4.9788 3.36125,-1.04738 3.36125,1.57235 3.36125,2.35915 0,0.78677 1.032,-3.9301 1.032,-3.9301 -3.87371,-2.88405 5.16366,-3.93135 2.58362,1.31046 l -1.55166,2.36039 2.58361,2.09476 0.25557,6.02984 c 5.68327,-0.52615 4.13297,-7.60343 4.13297,-7.60343 l 2.58238,-0.52123 c 0,-2.36039 1.80474,-1.04985 1.80474,-1.04985 -1.80474,-8.91263 4.13406,-10.48126 4.13406,-10.48126 3.35644,-0.78676 3.61321,-7.86657 3.61321,-7.86657 -2.31954,-1.04738 -1.03321,-4.71442 1.55045,-1.56738 2.58004,3.13973 -1.55045,-6.29423 -1.55045,-6.29423 l -2.064,-1.83301 -2.83931,-0.26184 -0.26044,-2.8828 -4.64405,0 -0.77643,3.67084 -1.80723,0.5237 -0.51966,-1.04987 -0.77278,2.8828 -4.64653,0 -0.2568,-3.1447 2.83931,-0.78554 1.03323,-1.57235 0.77278,-4.19449 3.35892,0 4.38851,-1.308 c 0.25557,-4.45639 2.58238,-3.40645 2.58238,-3.40645 l 1.54802,1.30924 2.32451,1.8341 0.25922,1.56986 -1.55166,0.78554 -0.25557,2.09973 0.77522,2.88156 2.06401,0 c 0.77401,-4.19325 6.20055,-4.19325 7.74851,-1.57235 l 1.55045,-3.66836 c -3.61445,-1.8341 -0.067,-4.71938 0.96507,-3.40769 1.03202,1.31171 3.42338,-3.40645 3.42338,-3.40645 0,0 1.80723,2.35915 0,-0.78678 -1.80722,-3.14594 1.2888,-4.7169 1.2888,-4.7169 -0.51357,-3.14347 3.35891,-2.6209 3.35891,-2.6209 l 0.26045,-4.19077 -3.61927,-0.26555 c -0.76914,3.6696 -3.86999,0.52617 -2.32078,-0.25937 1.55166,-0.78801 3.09608,-2.36039 3.09608,-2.36039 l 0,-2.6209 1.55045,-0.5237 0.25678,-2.62089 3.87604,0 3.35643,-1.57111 0.77644,-1.31171 3.61197,-0.2606 5.16366,-4.71939 -0.51235,-2.09476 c -3.09965,0 0,-2.35914 0,-2.35914 l 0.50992,-3.92281 z"
       id="path81" />
    <path
       inkscape:connector-curvature="0"
       style="fill:#e6e6e6"
       d="m 143.93769,553.49957 -4.64886,-0.5237 0.26045,1.83302 1.28877,0 c 2.06401,3.67084 0.25924,12.57974 0.25924,12.57974 0,0 -3.09609,0.25937 -3.6157,-1.30923 -0.51236,-1.57236 -1.80722,3.40769 -0.77522,4.19449 1.032,0.78182 4.6501,0 4.90688,2.88404 0.25556,2.88032 2.32451,-1.83658 2.32451,-1.83658 l 0,-17.82217 z"
       id="path83" />
    <polygon
       style="fill:#e6e6e6"
       points="419.91,290.42 421.19,290.2 421.4,288.71 418.21,290.84 416.09,289.57 416.09,294.66 419.49,299.11 420.76,296.14 421.19,294.23 419.7,293.6 "
       transform="matrix(1.216996,0,0,1.2351242,-367.09997,217.07964)"
       id="polygon85" />
    <polygon
       style="fill:#e6e6e6"
       points="421.61,303.78 421.61,301.66 420.13,301.87 419.91,303.57 "
       transform="matrix(1.216996,0,0,1.2351242,-367.09997,217.07964)"
       id="polygon87" />
    <polygon
       style="fill:#e6e6e6"
       points="419.7,313.97 419.7,312.48 417.9,312.69 417.9,314.18 "
       transform="matrix(1.216996,0,0,1.2351242,-367.09997,217.07964)"
       id="polygon89" />
    <path
       inkscape:connector-curvature="0"
       style="fill:#e6e6e6"
       d="m 146.71828,596.80838 c 0.60485,0 1.09164,-0.49529 1.09164,-1.10792 0,-0.61756 -0.48679,-1.11408 -1.09164,-1.11408 -0.60485,0 -1.09529,0.49528 -1.09529,1.11408 0,0.61263 0.49044,1.10792 1.09529,1.10792 z"
       id="path91" />
    <ellipse
       ry="1.1116117"
       rx="1.0952964"
       style="fill:#e6e6e6"
       cx="148.51691"
       cy="601.20325"
       id="circle93" />
    <ellipse
       ry="1.1116117"
       rx="1.0952964"
       style="fill:#e6e6e6"
       cx="148.57776"
       cy="571.26385"
       id="circle95" />
    <polygon
       style="fill:#e6e6e6"
       points="495.88,255.4 493.54,255.19 493.12,256.25 492.06,256.25 491.84,257.95 493.12,257.95 493.33,259.22 492.48,260.07 492.06,261.13 490.36,261.56 486.54,265.17 486.33,266.86 485.27,268.35 484,271.53 479.54,271.74 478.69,275.56 479.32,278.74 483.14,280.23 483.57,278.11 484.84,277.47 485.06,275.35 485.9,273.86 487.18,272.38 487.6,270.68 489.72,269.41 492.27,268.98 493.33,267.71 493.76,265.17 493.91,263.26 494.82,261.98 497.36,260.92 497.36,256.89 496.09,256.89 "
       transform="matrix(1.216996,0,0,1.2351242,-367.09997,217.07964)"
       id="polygon97" />
    <path
       inkscape:connector-curvature="0"
       style="fill:#e6e6e6"
       d="m 243.60386,550.3617 0,-3.66959 -0.51965,-3.4077 -3.8689,-1.83286 -2.83931,2.6209 -0.51966,3.6696 0,2.35666 -2.58128,0.52617 -0.51965,7.07481 -2.06276,0.78801 0.25801,2.62089 -2.83931,0.78554 -2.8393,0.78678 -0.51722,3.40646 -2.06276,1.30923 -1.03931,3.14579 -1.28879,7.5997 c 0,0 2.32684,4.45516 3.61569,2.35791 1.29245,-2.09476 3.35644,-2.35791 3.35644,-2.35791 l 0.77522,-1.83534 6.97213,0.26184 c 0.51722,-2.88528 3.87371,-1.83285 3.87371,-0.52369 0,1.31047 2.58362,0.26061 2.58362,0.26061 l 1.80598,-2.88156 2.83806,0 0.25801,-3.14346 1.29365,-0.78678 0,-4.71939 c 4.13298,-1.30922 3.61197,-5.24055 3.61197,-5.24055 l 1.03932,-1.30801 -0.51845,-1.83286 c -2.06882,-0.78925 -1.03809,-2.62586 0.25558,-2.10097 1.29487,0.52368 -1.80722,-2.35915 -1.80722,-2.35915 -1.54801,1.31295 -2.83682,-1.57111 -2.83682,-1.57111 l -3.87729,0 z"
       id="path99" />
    <path
       inkscape:connector-curvature="0"
       style="fill:#e6e6e6"
       d="m 247.73591,582.06661 c -0.25678,3.14346 -4.13282,4.19324 -4.13282,4.19324 l -2.83931,-0.78553 -1.54801,-1.31047 -0.25921,-3.67084 2.32202,-0.25939 0.51722,1.5736 5.9402,0.25939 z"
       id="path101" />
    <path
       inkscape:connector-curvature="0"
       style="fill:#e6e6e6"
       d="m 261.68545,565.30541 c 0.5586,2.28506 0.51235,-3.67332 1.54558,-3.40769 1.032,0.26061 0.26043,-3.66711 0.26043,-3.66711 l -4.64886,3.40148 c 2.32326,0.26555 2.58004,2.62587 2.84288,3.67332 z"
       id="path103" />
    <path
       inkscape:connector-curvature="0"
       style="fill:#e6e6e6"
       d="m 275.3709,551.66656 c 1.032,2.36039 0.77644,5.76809 4.64405,8.38898 1.30827,0.88313 -0.774,2.6209 -2.06773,1.83302 -1.2888,-0.78554 -4.90083,-6.55365 -4.90083,-6.55365 l 0,-3.40645 c 0.774,-2.09476 1.87651,-1.27711 2.32451,-0.26184 z"
       id="path105" />
    <polygon
       style="fill:#e6e6e6"
       points="528.55,336.03 529.18,337.09 530.67,334.76 529.4,334.33 527.92,335.4 "
       transform="matrix(1.216996,0,0,1.2351242,-367.09997,217.07964)"
       id="polygon107" />
    <line
       style="fill:#e6e6e6"
       x1="268.90875"
       y1="627.14624"
       x2="268.90875"
       y2="630.29968"
       id="line109" />
    <polygon
       style="fill:#e6e6e6"
       points="553.29,328.93 554.99,327.87 554.31,326.8 552.62,327.85 "
       transform="matrix(1.216996,0,0,1.2351242,-367.09997,217.07964)"
       id="polygon111" />
    <path
       inkscape:connector-curvature="0"
       style="fill:#e6e6e6"
       d="m 380.9866,677.98908 2.32684,1.04493 0.25556,4.45515 c 3.1009,3.1447 13.17144,0.52492 13.17144,-0.26184 0,-0.78801 -0.51964,-9.69571 -0.51964,-9.69571 l -1.29368,-1.31169 -0.25556,-6.55597 c 1.03202,-3.40645 -4.90813,-8.3865 -5.42292,-7.33298 -0.51722,1.04491 -3.87372,0.2569 -3.87372,1.30799 0,1.04493 -2.06276,6.28801 -1.032,8.1246 1.032,1.83534 -0.77644,1.83534 -1.032,3.66835 -0.25679,1.8341 -2.84164,4.98378 -2.32451,6.55722 z"
       id="path113" />
    <path
       inkscape:connector-curvature="0"
       style="fill:#e6e6e6"
       d="m 375.30115,667.50363 c -0.48923,1.98602 -2.31954,3.1447 -3.35161,2.35666 -1.03931,-0.78801 1.28393,1.308 1.80474,2.36148 0.51478,1.04493 2.06276,1.04493 2.58237,0 0.51234,-1.05479 0.25678,-3.40645 0.77643,-4.45515 0.51236,-1.04987 -1.55166,-1.31171 -1.81204,-0.26309 z"
       id="path115" />
    <rect
       style="fill:#e6e6e6"
       x="363.2934"
       y="619.4259"
       width="1.8047407"
       height="4.9812894"
       id="rect117" />
    <path
       inkscape:connector-curvature="0"
       style="fill:#e6e6e6"
       d="m 390.02739,568.97144 c -1.12693,-1.52662 5.16366,-4.19325 6.19574,-1.0474 1.032,3.14098 0,2.6209 -1.03201,2.35915 -1.03566,-0.26432 -3.61321,0.78307 -5.16365,-1.3117 z"
       id="path119" />
    <polygon
       style="fill:#e6e6e6"
       points="626.69,256.48 626.47,257.73 628.8,258.15 629.03,256.9 "
       transform="matrix(1.216996,0,0,1.2351242,-367.09997,217.07964)"
       id="polygon123" />
    <polygon
       style="fill:#e6e6e6"
       points="617.12,259.76 618.82,260.82 619.14,261.02 619.46,260.84 620.74,260.13 620.9,260.52 622.08,260.05 621.65,258.99 621.38,258.32 620.75,258.67 619.17,259.55 617.79,258.69 "
       transform="matrix(1.216996,0,0,1.2351242,-367.09997,217.07964)"
       id="polygon125" />
    <path
       inkscape:connector-curvature="0"
       style="fill:#e6e6e6"
       d="m 398.0274,474.6179 -3.87604,0 c 0,0 1.29244,0.5237 -2.31954,-2.88404 -3.62051,-3.40646 -5.94021,0.78678 -5.94021,0.78678 l -4.13173,0.52368 0,4.19325 -2.06882,0.78554 0.26166,2.62214 2.8393,-0.26062 c 0,0 0,3.14346 0.77521,1.8341 0.77645,-1.3117 7.23263,0.25937 6.71411,3.40646 -0.21053,1.29193 6.45857,4.71441 5.68327,8.90766 3.35643,0.52617 2.58237,3.93383 2.58237,3.93383 l 4.38727,0.52368 1.29366,-2.62089 1.28879,0.26308 0,-1.5736 -2.84412,-0.78553 -0.51236,-8.38775 -1.80722,-1.31046 0.51478,-2.09725 -2.06401,-0.78676 1.03322,-3.40645 -1.80971,-3.66712 z"
       id="path127" />
    <path
       inkscape:connector-curvature="0"
       style="fill:#e6e6e6"
       d="m 409.38276,501.35192 -2.06401,-0.25939 -4.65492,0.78554 -2.57631,4.97881 c 0,0 1.28878,0.78676 2.31954,2.62089 1.03201,1.83659 1.55045,12.57851 -1.54801,14.41525 -3.09609,1.83534 0.26044,0.78307 0.26044,0.78307 l -0.51966,5.76684 c 0.77644,2.6209 2.064,1.31295 2.83931,0 0.78129,-1.30677 1.5565,-1.56987 2.58858,-2.88031 1.032,-1.31294 2.58005,-3.6696 2.83931,-5.50619 0.25558,-1.83301 1.54801,-4.71441 0.7728,-5.50121 -0.7728,-0.78677 0.77644,-4.45391 0.77644,-4.45391 0,0 1.032,-2.09973 0,-4.19449 -1.03202,-2.09849 0.25677,-4.4564 1.032,-5.50618 l -2.06525,-1.04863 z"
       id="path129" />
    <rect
       style="fill:#e6e6e6"
       x="-454.76608"
       y="473.21899"
       width="2.1140161"
       height="1.5531802"
       transform="matrix(0.12487039,-0.99217306,0.9917017,0.12856022,0,0)"
       id="rect133" />
    <rect
       style="fill:#e6e6e6"
       x="-599.67291"
       y="-276.06451"
       width="1.5501699"
       height="1.7523853"
       transform="matrix(-0.89144963,-0.45311981,0.44253147,-0.89675298,0,0)"
       id="rect135" />
    <path
       inkscape:connector-curvature="0"
       style="fill:#e6e6e6"
       d="m 410.15946,498.47813 -1.03688,-2.36039 c 0,0 0,-2.09352 0.51722,-3.14595 0.51966,-1.04738 -1.032,-2.09352 -1.80474,-2.35666 -0.77523,-0.26309 -0.5148,-2.35791 -0.77523,-3.4077 -0.25679,-1.04739 -2.06276,-1.83301 -2.06276,-1.83301 0,0 -0.52087,-3.93135 -0.52087,-4.7169 0,-0.78677 -2.32326,-1.8341 -1.54801,-2.62214 0.77644,-0.78554 1.29366,-1.83286 2.06882,-2.35915 0.77522,-0.5237 -0.77644,-4.19325 0.51236,-3.40769 1.29365,0.788 1.29365,2.09724 1.81095,3.14594 0.5148,1.04738 -0.26042,4.71815 1.03323,5.50494 1.28758,0.7843 -0.26165,3.40397 1.80598,3.40397 2.06401,0 0.77644,4.98129 0.77644,4.98129 0,0 -0.51966,3.66711 0.76914,3.93134 1.29367,0.26185 0.51966,6.55116 0.51966,6.55116 l -2.06525,-1.30924 z"
       id="path137" />
    <path
       inkscape:connector-curvature="0"
       style="fill:#e6e6e6"
       d="m 393.38273,456.00816 c 0.77158,1.04738 2.32203,1.83286 2.32203,2.88404 0,1.04987 -0.51479,1.83302 1.03687,2.09601 1.54558,0.26061 2.58129,-0.26309 3.09609,1.04738 0.51722,1.30924 0.51722,3.40645 0.26044,4.45515 -0.26044,1.04985 0.25678,2.6209 1.54557,2.6209 1.29366,0 1.55045,0.26308 1.55045,1.04986 0,0.7843 1.55043,-2.88528 1.55043,-2.88528 -1.29486,-1.0474 -2.32683,-3.4077 -2.32683,-3.4077 0,0 -1.28878,-3.66835 -1.28878,-4.192 0,-0.5237 -1.80599,-1.04987 -2.58005,-1.31047 -0.77643,-0.26308 -2.07006,-2.61965 -2.07006,-2.61965 l -3.09608,0.26184 z"
       id="path139" />
    <path
       inkscape:connector-curvature="0"
       style="fill:#e6e6e6"
       d="m 395.96138,453.66253 c -0.77644,-1.0511 -1.55166,-1.83659 -2.58362,-2.35791 -1.02956,-0.52617 -1.80474,-1.04987 -2.84163,-1.04987 -1.03201,0 -2.06276,-1.04985 -1.55045,-2.3579 0.51966,-1.31171 -0.77644,-1.83534 -0.77644,-2.88529 0,-1.04739 0.77644,-1.04739 2.06882,-0.26061 1.29366,0.78676 1.03202,1.04738 2.07006,2.36039 1.02956,1.30922 1.54436,2.61965 2.57523,2.35666 1.03809,-0.26308 1.81204,2.35791 2.84412,1.57236 1.032,-0.78556 0.77644,1.8341 0.77644,1.8341 l -2.58238,0.788 z"
       id="path141" />
    <path
       inkscape:connector-curvature="0"
       style="fill:#e6e6e6"
       d="m 365.74774,483.27034 c 1.42388,1.44757 -7.74494,1.04615 -7.74494,0 0,-1.04738 0.77643,-4.71442 3.09608,-3.93383 2.32451,0.78925 2.58004,-4.71442 2.58004,-4.71442 0,0 -2.06276,0.25939 -0.25556,-0.78676 1.80722,-1.0474 0,-2.6209 -0.77646,-3.40646 -0.77278,-0.788 -1.54801,-2.09724 -1.54801,-2.09724 l 3.61818,0 c 1.55045,-1.04985 2.06276,-6.02735 2.06276,-6.02735 3.09609,1.04738 4.64654,-1.04985 4.64654,-1.04985 0,0 0.52452,1.57235 1.55526,2.88529 1.03202,1.30799 -2.58734,1.83285 -1.29487,2.62089 1.29487,0.78678 1.80723,3.14346 1.29487,3.92778 -0.51964,0.78676 -3.36373,0.26306 -3.36373,-0.78432 0,-1.04985 -1.03202,1.31047 0,2.6209 1.032,1.31047 -1.2888,3.14346 -1.80723,3.14346 -0.51722,0 -3.86874,0.52617 -1.032,2.09725 2.8393,1.57111 5.94378,0.78925 5.94378,0.78925 0,0 2.32202,-0.26555 3.09608,1.04738 0.77645,1.30924 -0.25678,1.57235 -1.54801,1.57235 -1.2888,0 -7.4905,-0.52617 -7.4905,-0.52617 0,0 -1.80598,1.83535 -1.032,2.62214 z"
       id="path143" />
    <path
       inkscape:connector-curvature="0"
       style="fill:#e6e6e6"
       d="m 349.21956,485.63151 c 1.29488,-0.26186 4.38727,-0.52617 4.90688,0.2606 0.51964,0.78555 -1.80723,1.83301 -1.80723,1.83301 l -3.09965,0.52617 c -1.032,-1.31171 -1.2888,-2.35791 0,-2.61966 z"
       id="path145" />
    <path
       inkscape:connector-curvature="0"
       style="fill:#e6e6e6"
       d="m 382.54,463.61982 c 2.064,-1.04738 6.45251,-1.04738 6.19574,-2.62089 -0.25557,-1.57236 2.58128,-2.09601 2.58128,-2.09601 l 0.77523,3.14346 2.3245,1.57236 0.25922,2.8828 c 0,0 0.77279,-0.5237 -2.064,0.26308 -2.84412,0.78677 -1.03201,2.09476 -1.03201,2.09476 l -6.20055,0.26184 -0.77522,-2.62089 -2.06401,-2.88032 z"
       id="path147" />
    <path
       inkscape:connector-curvature="0"
       style="fill:#e6e6e6"
       d="m 372.45843,449.46835 c 1.56987,0 -0.51236,6.02734 3.61321,5.50369 4.13298,-0.52615 0.26286,1.8341 3.35892,2.09476 3.09965,0.26556 2.3245,-2.3579 3.35643,-4.19076 1.03688,-1.8341 0.51966,-2.88404 -1.2888,-3.40769 -1.81204,-0.5237 -1.81204,-0.5237 -2.3245,-2.62339 -0.5148,-2.09476 -2.58238,-2.62089 -2.58238,-2.62089 l -0.77645,-3.14222 -3.35643,2.09476 -3.35643,4.45515 c 0,3.41018 1.80598,1.83659 3.35643,1.83659 z"
       id="path149" />
    <rect
       style="fill:#e6e6e6"
       x="-248.59634"
       y="548.86383"
       width="1.7537836"
       height="1.5575948"
       transform="matrix(0.44249136,-0.89677277,0.89146989,0.45307994,0,0)"
       id="rect153" />
    <rect
       style="fill:#e6e6e6"
       x="376.59045"
       y="469.11887"
       width="1.5504489"
       height="1.8340998"
       id="rect155" />
    <rect
       style="fill:#e6e6e6"
       x="474.13617"
       y="-327.94482"
       width="2.37112"
       height="1.5495473"
       transform="matrix(0.10977955,0.99395596,-0.99359043,0.11304005,0,0)"
       id="rect157" />
    <rect
       style="fill:#e6e6e6"
       x="373.49921"
       y="458.63342"
       width="1.5504489"
       height="1.312934"
       id="rect159" />
    <rect
       style="fill:#e6e6e6"
       x="-493.10593"
       y="323.36993"
       width="1.573445"
       height="2.595103"
       transform="matrix(-0.09667065,-0.99531642,0.99503303,-0.0995453,0,0)"
       id="rect161" />
    <rect
       style="fill:#e6e6e6"
       x="-509.23627"
       y="-304.33145"
       width="1.5480121"
       height="1.9914672"
       transform="matrix(-0.9166288,-0.39973948,0.38987845,-0.92086633,0,0)"
       id="rect163" />
    <rect
       style="fill:#e6e6e6"
       x="-510.56998"
       y="292.02423"
       width="1.569715"
       height="2.5988312"
       transform="matrix(-0.09686575,-0.99529746,0.9950129,-0.09974629,0,0)"
       id="rect165" />
    <polygon
       style="fill:#e6e6e6"
       points="544.22,211.7 539.56,211.91 539.62,213.18 544.28,212.97 "
       transform="matrix(1.216996,0,0,1.2351242,-367.09997,217.07964)"
       id="polygon169" />
    <rect
       style="fill:#e6e6e6"
       x="-531.8136"
       y="176.6165"
       width="2.4116516"
       height="1.5527177"
       transform="matrix(-0.21328023,-0.97699107,0.97563952,-0.21937989,0,0)"
       id="rect171" />
    <rect
       style="fill:#e6e6e6"
       x="-548.23914"
       y="119.96946"
       width="1.5700243"
       height="0.81658947"
       transform="matrix(-0.31191952,-0.95010853,0.94730237,-0.3203408,0,0)"
       id="rect173" />
    <path
       inkscape:connector-curvature="0"
       style="fill:#e6e6e6"
       d="m 297.569,478.03538 -0.2568,1.8341 2.83682,0.26308 c 0,0 1.2888,1.04987 1.2888,1.83302 0,0.78676 1.81204,1.57235 2.84412,1.57235 1.03201,0 3.87123,-2.09725 3.87123,-2.09725 0,0 1.29367,-3.6696 0.26165,-3.40769 -1.03688,0.26061 -3.1009,1.8341 -3.35643,0.26061 -0.26166,-1.57235 -3.35643,-0.78678 -3.35643,-0.78678 l -4.13298,0.52864 z"
       id="path175" />
    <path
       inkscape:connector-curvature="0"
       style="fill:#e6e6e6"
       d="m 310.47775,475.14605 c 0,0.78432 -0.51236,1.83302 1.032,2.09725 1.55651,0.25937 4.39582,-1.04738 4.65135,0.5237 0.26166,1.57111 0.26166,2.62338 2.32451,3.41018 2.06276,0.78431 3.35892,1.04738 4.90688,1.04738 1.54557,0 4.90812,-0.5274 4.90812,-0.5274 0,0 3.65345,0.57187 4.38727,1.31295 2.83931,2.88156 4.64653,3.66712 5.42044,2.35791 0.77522,-1.31171 -0.25678,-4.19201 -0.51357,-5.24055 -0.26043,-1.05109 -3.87605,-6.02984 -5.16739,-4.98129 -1.28879,1.04986 -1.5468,0 -3.87247,0.78431 -2.32451,0.78677 -7.23139,0.26555 -7.48692,-0.78431 -0.2568,-1.04985 -3.87248,-1.56987 -3.87248,-2.6209 0,-1.04986 -2.58004,-2.3579 -2.3245,-0.78678 0.25679,1.57111 -1.80599,2.35791 -2.33057,1.83659 -0.51236,-0.52493 -2.06276,1.5711 -2.06276,1.5711 z"
       id="path177" />
    <path
       inkscape:connector-curvature="0"
       style="fill:#e6e6e6"
       d="m 369.87978,441.59261 1.81096,-5.76188 c -2.58004,-0.52616 -2.06758,-3.40645 -2.06758,-3.40645 -0.25679,-2.36024 -3.87123,-4.98005 -5.16366,-4.19325 -1.28879,0.78307 -0.77645,-5.50618 -0.77645,-5.50618 0,0 2.32684,-1.56987 3.35892,-0.78431 1.03323,0.78431 -8.77811,-13.1034 -10.84584,-11.79295 -2.064,1.31046 -6.70929,-1.31047 -6.45252,-3.67084 0.25678,-2.35667 -9.29663,-10.22076 -9.29663,-10.22076 0,0 -3.09966,-2.09351 -3.61445,-0.52121 -0.51722,1.57111 -1.54923,2.6209 0,3.40397 1.54679,0.78801 1.28879,-1.30924 3.09484,0.5237 1.80722,1.83409 5.16847,4.19449 3.87604,5.76684 -1.29243,1.57484 -2.84288,2.09849 -2.84288,2.09849 l 1.81096,2.09724 2.8393,0 0.51722,4.45267 c 0,0 3.09608,1.57359 3.87247,3.40769 0.77523,1.83302 0.77523,2.88281 0,3.93259 -0.77643,1.04738 -2.31953,2.88156 -2.064,4.71442 0.25679,1.8341 2.32451,2.6209 2.32451,2.6209 l 2.06276,0.26308 1.55166,0.78801 0,3.40894 c 2.06276,-0.52617 5.41919,2.35417 5.16366,4.19076 -0.25678,1.8341 0.51236,0.78554 3.09484,2.6209 2.5861,1.8341 1.81204,2.09724 3.61818,3.40769 1.80847,1.30677 3.35892,0.52123 4.12801,-1.84031 z"
       id="path179" />
    <path
       inkscape:connector-curvature="0"
       style="fill:#e6e6e6"
       d="m 327.27001,405.9576 c -0.25678,-1.04987 -0.77644,-4.72063 0.77523,-4.45888 1.54801,0.26555 0.51722,0 2.3245,0.78802 1.80723,0.78801 2.06401,-1.30923 2.06401,-1.30923 l 2.84288,0 3.6132,2.88031 -0.51722,2.36024 -2.58237,0.25939 c -1.28879,-2.09352 -3.87247,-1.30801 -3.35643,0.52739 0.51722,1.83301 -1.2888,5.24071 -2.31954,5.50121 -1.03323,0.26307 -4.39581,0.26307 -4.13298,-1.30801 0.2568,-1.57235 1.2888,-5.24055 1.2888,-5.24055 z"
       id="path181" />
    <path
       inkscape:connector-curvature="0"
       style="fill:#e6e6e6"
       d="m 325.20399,398.87409 0,-2.09476 c 0,0 -0.26287,-2.096 -1.55043,-2.096 -1.28759,0 -3.61321,-1.57111 -3.1009,-2.6209 0.52087,-1.04985 -4.38727,-2.09724 -4.38727,-2.09724 0,0 -4.38727,-4.19325 -2.83931,-3.66711 1.55044,0.52368 0.77644,-1.83659 0.77644,-1.83659 0,0 -3.1009,0.52368 -3.87605,0.26307 -0.77643,-0.26307 -0.51964,-2.6209 -0.51964,-2.6209 0,0 -3.0936,-0.78678 -3.0936,0 0,0.78677 1.03202,0.78677 1.54436,2.35666 0.51966,1.57111 0.26166,4.1945 2.58859,4.71691 2.32451,0.52616 2.83682,1.04738 3.09966,2.09724 0.25679,1.04985 3.09608,1.31047 3.09608,1.31047 l 2.06757,1.04739 6.1945,5.2418 z"
       id="path183" />
    <polygon
       style="fill:#e6e6e6"
       points="545.95,125.55 545.32,123.85 543.62,123.43 543.62,125.34 "
       transform="matrix(1.216996,0,0,1.2351242,-367.09997,217.07964)"
       id="polygon185" />
    <path
       inkscape:connector-curvature="0"
       style="fill:#e6e6e6"
       d="m 296.54375,361.142 c -2.69934,-2.04909 3.61197,1.57359 3.61197,1.57359 2.064,0 3.35643,1.57235 3.35643,2.36039 0,0.78554 2.84039,0.5237 2.84039,0.5237 l 0.26287,-1.83658 -2.07006,-2.6209 -1.80474,-1.30677 c 0,0 -2.83931,-0.26308 -2.83931,-1.04985 -10e-4,-0.78431 -2.32575,3.14471 -3.35767,2.35667 z"
       id="path187" />
    <path
       inkscape:connector-curvature="0"
       style="fill:#e6e6e6"
       d="m 344.04674,362.71093 c -0.75454,2.2936 -1.03201,5.50494 -2.32451,5.50494 -1.2888,0 -0.77523,3.41018 -0.77523,3.41018 0,0 3.36249,0 4.39457,0.25939 1.02957,0.25937 1.02957,2.88031 1.02957,2.88031 3.87604,-0.25938 5.42649,4.98129 4.90688,6.29174 -0.51722,1.30924 1.55045,1.30924 1.55045,1.30924 0,0 0,4.19449 -0.51966,5.24071 -0.51236,1.04985 3.35891,1.83658 4.39084,3.40769 1.032,1.5736 -0.51966,6.81415 -1.29124,7.07605 -0.77401,0.26308 2.06277,1.0474 1.80723,2.35791 -0.26165,1.31293 0.77523,0 1.03202,2.09849 0.25678,2.09476 0.77643,6.54991 0.77643,6.54991 l 3.61197,0.26431 c 0.51964,-3.40645 7.17656,-3.5374 8.26456,-3.14595 4.38975,1.57236 7.751,8.3865 7.751,9.95761 0,1.57111 -2.84412,1.83659 -2.84412,1.83659 l 0.51964,7.59721 c 4.38727,1.31171 8.00297,7.60343 7.48817,8.65089 -0.51722,1.04738 3.09484,0.78801 3.09484,0.78801 0.51964,-4.72063 4.90812,-3.14704 5.16366,-1.5736 0.26409,1.5736 1.03323,4.98005 1.03323,4.98005 l 1.29244,2.35542 1.80723,1.83534 2.8393,-0.26184 0.77644,1.5736 3.35643,0.52616 c 0,0 2.84412,3.14098 3.09965,3.93011 0.26166,0.78431 4.13298,0.52369 5.16366,0.78431 1.03202,0.26307 2.58362,1.04985 2.83931,2.35915 0.26165,1.3117 1.81204,3.40769 1.81204,3.40769 0,0 3.09608,0.78801 3.35643,1.8341 0.25679,1.04616 1.55045,3.40645 1.55045,3.40645 l 2.57632,2.09725 0.26044,2.36024 2.8393,0.26185 0.77644,3.14098 4.64405,-0.25937 2.58734,-1.8341 c 3.35643,-1.83286 5.68094,-4.19325 5.9402,-5.24304 0.25557,-1.04738 0.77279,-4.97632 3.35644,-4.19076 2.58004,0.78678 0.77522,-5.76685 0.77522,-5.76685 0,0 -3.61445,-2.62089 -3.35892,-3.93383 0.25922,-1.30801 -3.61196,-3.92777 -3.35643,-4.97756 0.25679,-1.04986 -3.35643,-3.14346 -3.09966,-4.19201 0.25557,-1.04985 -1.80722,-3.93383 -1.80722,-3.93383 l -3.87605,-3.66711 -0.51722,-2.36039 -3.09608,-0.25937 -6.19574,-7.60095 0.25678,-2.09848 -1.80723,-0.26062 0,-2.88156 -1.80474,-1.04985 -2.84412,-0.26184 -5.67845,-6.28801 -0.51722,-2.88404 -2.83931,0 0.5148,-5.50494 c 1.80971,-2.35915 0.774,-6.81415 0.774,-6.81415 0,0 -3.61818,1.8341 -5.42044,1.0474 -1.81095,-0.78309 0.77158,-2.6209 0.77158,-2.6209 l 0,-2.09476 -1.5468,-1.57235 c 0,0 -4.39333,0.52617 -4.64886,-0.25937 -0.25922,-0.78678 -1.03201,-4.19449 -1.03201,-4.19449 l -0.25921,-4.4564 -1.80474,-0.78307 -0.26287,-1.57484 -2.83682,0.26062 0,-3.14346 -1.55166,-0.52368 -1.54801,-0.78679 -0.258,-3.14594 -5.68094,-0.25937 -1.80723,-2.6209 -2.064,-3.14579 -6.45609,-0.5237 -1.55045,-1.56987 -2.58129,-0.52617 -1.80722,-0.78676 -0.77523,1.31293 -4.90812,0.25939 -0.25557,1.57235 c -2.58128,1.31048 -12.90984,0.26062 -13.17268,1.04615 z"
       id="path189" />
    <path
       inkscape:connector-curvature="0"
       style="fill:#e6e6e6"
       d="m 371.16911,355.90704 c -0.40892,-2.06882 5.16847,-3.93135 6.45733,-2.36039 1.29365,1.57235 4.90688,1.83907 5.42416,9.70067 0.18256,2.81492 -4.64886,-2.8828 -4.64886,-2.8828 l -3.87605,-1.31046 c -2.064,-0.52617 -3.09965,-1.83302 -3.35643,-3.14719 z"
       id="path191" />
    <rect
       style="fill:#e6e6e6"
       x="-414.91498"
       y="-205.44521"
       width="1.5494385"
       height="2.5764694"
       transform="matrix(-0.91112044,-0.4121402,0.40209005,-0.91560013,0,0)"
       id="rect193" />
    <path
       inkscape:connector-curvature="0"
       style="fill:#e6e6e6"
       d="m 282.08159,333.3672 -3.36373,-3.4077 0,-2.8828 -1.032,-1.05109 -1.03202,-3.66711 -3.35643,-1.0474 -3.35643,1.308 -3.6157,2.35915 -3.87123,0.52739 -2.06882,2.35666 8.26456,0.78307 1.5468,2.62463 5.94502,0.5237 3.86874,3.9301 c 3.36373,1.04985 4.13531,-0.5237 2.07131,-2.35666 z"
       id="path195" />
    <path
       inkscape:connector-curvature="0"
       style="fill:#e6e6e6"
       d="m 281.56897,320.52058 c -0.56833,-2.30354 -3.87604,2.88155 -0.51234,3.92761 3.35643,1.05357 6.70805,0 6.70805,0 l 0.77643,-1.5711 12.90736,0.26308 c 1.03932,-1.04985 1.55045,-2.6209 1.55045,-2.6209 0,0 3.1009,-1.04986 4.38851,-0.52617 1.29366,0.52617 0.26287,-3.66711 -1.032,-3.14346 -1.28879,0.5237 -3.86998,0.26184 -3.86998,0.26184 l -4.65011,0 c -0.25678,-1.83285 -4.38851,-1.04985 -4.64653,0 -0.26165,1.0474 -1.80474,1.30924 -1.80474,1.30924 l -5.9402,0.52617 c -0.51844,1.57359 -3.61321,2.6209 -3.87496,1.57359 z"
       id="path197" />
    <path
       inkscape:connector-curvature="0"
       style="fill:#e6e6e6"
       d="m 256,364.74589 c 3.97111,1.25982 5.42044,0.3273 5.68327,-0.72008 0.25679,-1.04985 0.51236,-1.31294 2.064,-1.57235 1.54801,-0.26309 -0.25921,-3.4077 -1.80722,-3.14595 -1.55166,0.26186 -3.1009,-0.52368 -3.35643,-1.8341 -0.26408,-1.30922 -2.84413,-4.7169 -3.1009,-2.09476 -0.25801,2.6209 -1.80723,2.6209 -1.55045,4.45515 0.26043,1.83053 1.03565,4.58113 2.06773,4.91216 z"
       id="path199" />
    <path
       inkscape:connector-curvature="0"
       style="fill:#e6e6e6"
       d="m 226.31452,367.69735 c -0.18619,-0.92757 5.16366,-1.04738 5.9402,-0.26431 0.77644,0.78801 0.25678,2.09724 2.58129,2.09724 2.32078,0 1.29002,1.5736 1.03201,2.36039 -0.25679,0.78554 -2.83682,0.52369 -3.10089,-0.25938 -0.25557,-0.78801 -4.13174,-1.05356 -4.13174,-1.05356 0,0 -2.064,-1.5736 -2.32078,-2.88032 z"
       id="path201" />
    <polygon
       style="fill:#e6e6e6"
       points="559.77,76.462 558.09,77.802 557.01,76.721 556.11,77.62 557.59,79.105 558,79.51 558.44,79.154 560.57,77.455 "
       transform="matrix(1.216996,0,0,1.2351242,-367.09997,217.07964)"
       id="polygon205" />
    <polygon
       style="fill:#e6e6e6"
       points="548.07,72.599 546.71,71.752 546.04,72.832 547.74,73.89 548.07,74.105 548.41,73.89 550.75,72.403 550.07,71.33 "
       transform="matrix(1.216996,0,0,1.2351242,-367.09997,217.07964)"
       id="polygon207" />
    <polygon
       style="fill:#e6e6e6"
       points="541.23,116.25 540.92,116.22 538.8,116 538.67,117.27 540.49,117.45 541.81,119.52 542.88,118.84 541.4,116.51 "
       transform="matrix(1.216996,0,0,1.2351242,-367.09997,217.07964)"
       id="polygon209" />
    <path
       inkscape:connector-curvature="0"
       style="fill:#e6e6e6"
       d="m 206.16691,433.7324 0.26408,2.88404 3.8689,0 c 1.55044,0 -1.28879,-1.8341 -1.28879,-1.8341 0,0 -3.09966,0.26309 -2.84412,-1.04985 z"
       id="path211" />
    <rect
       style="fill:#e6e6e6"
       x="-195.90466"
       y="438.04489"
       width="1.5641243"
       height="2.0264244"
       transform="matrix(0.63290773,-0.77422723,0.76494491,0.64409571,0,0)"
       id="rect213" />
    <rect
       style="fill:#e6e6e6"
       x="-152.9014"
       y="387.0929"
       width="1.5619404"
       height="2.2069073"
       transform="matrix(0.70246161,-0.71172163,0.70125272,0.71291277,0,0)"
       id="rect215" />
    <polygon
       style="fill:#e6e6e6"
       points="498.07,408.88 495.95,407.82 495.38,408.96 496.71,409.62 496.27,410.06 497.18,410.96 498.24,409.9 498.86,409.28 "
       transform="matrix(1.216996,0,0,1.2351242,-367.09997,217.07964)"
       id="polygon219" />
    <polygon
       style="fill:#e6e6e6"
       points="481.64,393.6 480.83,392.62 479.55,393.68 478.92,394.21 479.59,394.69 481.08,395.75 481.82,394.72 481,394.13 "
       transform="matrix(1.216996,0,0,1.2351242,-367.09997,217.07964)"
       id="polygon221" />
    <path
       inkscape:connector-curvature="0"
       style="fill:#e6e6e6"
       d="m 411.07596,653.50749 c -0.34198,-1.33516 -1.84746,-1.8835 -2.01771,-1.93911 l -0.49288,1.4945 0,-0.009 c 0.12288,0.0469 0.30181,0.14073 0.4807,0.25814 l 0.31643,1.35863 c -0.11557,0.17416 -0.24219,0.3372 -0.34198,0.45453 l 1.13667,1.06344 c 0.82877,-0.92264 1.13546,-1.81685 0.91884,-2.68023 z"
       id="path223" />
    <polygon
       style="fill:#e6e6e6"
       points="641.38,349.34 639.31,349.19 639.47,347.28 641.54,347.6 "
       transform="matrix(1.216996,0,0,1.2351242,-367.09997,217.07964)"
       id="polygon225" />
    <path
       inkscape:connector-curvature="0"
       style="fill:#e6e6e6"
       d="m 473.30518,628.12493 c 1.1038,-0.69785 2.51558,-1.96878 2.32451,0.98439 -0.19593,2.94695 -1.35694,1.96753 -2.32451,2.94695 -0.9675,0.98441 -1.54923,-2.94695 0,-3.93134 z"
       id="path227" />
    <path
       inkscape:connector-curvature="0"
       style="fill:#e6e6e6"
       d="m 486.44695,617.00258 c -0.0219,-0.0519 -0.0353,-0.23344 -0.0463,-0.36559 -0.034,-0.4323 -0.0901,-1.02146 -0.39674,-1.64024 l -1.38371,0.70279 c 0.17159,0.35078 0.20567,0.72131 0.23488,1.07702 0.039,0.45947 0.0901,0.98441 0.52938,1.31665 0.27749,0.21121 0.62798,0.27173 1.04541,0.19144 l -0.29574,-1.52167 c 0.1193,0.0185 0.27626,0.12723 0.31276,0.23962 z"
       id="path231" />
    <path
       inkscape:connector-curvature="0"
       style="fill:#e6e6e6"
       d="m 482.9984,618.2919 c 0.39309,1.59333 0.96751,3.16319 0.99306,3.22859 l 1.45308,-0.55334 c -0.0109,-0.014 -0.57441,-1.55132 -0.9456,-3.06066 l -1.50054,0.38535 z"
       id="path233" />
    <path
       inkscape:connector-curvature="0"
       style="fill:#e6e6e6"
       d="m 477.35956,624.47444 -1.54315,-0.15441 c -0.12054,1.23637 0.17404,2.76427 1.39468,3.01251 l 0.30303,-1.54144 c 0.0109,0 0.0255,0.009 0.0292,0.009 -0.12536,-0.11122 -0.23976,-0.74355 -0.18377,-1.3253 z"
       id="path235" />
    <path
       inkscape:connector-curvature="0"
       style="fill:#e6e6e6"
       d="m 470.5712,593.20449 c -0.0803,-0.50394 -0.38214,-0.89548 -0.84702,-1.10174 -1.14641,-0.50392 -3.079,0.32979 -4.0258,0.97204 l 0.85677,1.30924 c 0.98089,-0.6645 2.26843,-0.98439 2.55565,-0.83741 -0.0255,-0.009 -0.0609,-0.0556 -0.0705,-0.0865 l 1.53097,-0.25568 z"
       id="path237" />
    <path
       inkscape:connector-curvature="0"
       style="fill:#e6e6e6"
       d="m 399.05264,509.4762 c -1.03201,1.04985 -3.35643,1.5736 -3.35643,1.5736 l -0.77643,2.8828 -1.28759,1.04738 c 0,0 0.25557,0.78555 0,2.6209 -0.25921,1.83301 -2.58361,2.8828 -2.58361,2.8828 l -1.03202,1.31046 c 0,0 -6.22494,0.3372 -6.97213,0 -2.3245,-1.04738 -0.77278,-4.19325 0.77644,-3.93134 1.5468,0.26308 -0.26166,-4.4564 -0.26166,-4.4564 l 2.06882,-0.26061 c 0,0 0.25557,-4.71939 1.03202,-4.71939 0.77523,0 -0.25679,-1.57111 -1.29367,-2.35791 -1.032,-0.78307 -2.32202,-3.40396 -3.35892,-3.14346 -1.032,0.26062 -5.16366,0 -5.16366,0 l -0.77522,1.5736 -2.84164,0.52245 c 0,0 0.24462,2.02688 -0.25191,2.62214 -1.55527,1.83302 -7.4905,5.76436 -4.91185,-0.78676 l 0.77278,-1.56987 0,-2.36039 -4.6428,-0.25937 c 0,0 -2.32451,-0.78801 -2.32451,-1.83659 0,-1.04862 -0.25922,-2.35666 -0.25922,-2.35666 l -5.42416,-6.02735 -6.45251,-0.78556 -0.51965,-1.31293 -3.8689,-0.5237 c -4.65134,-2.35666 -8.78417,-0.26184 -8.00778,3.6696 0.77402,3.93383 2.06276,5.50494 -0.51478,5.50494 -2.5861,0 -3.1009,-2.096 -3.1009,-2.096 0,0 -2.06276,-0.78801 -2.06276,0.25937 0,1.04985 -0.77643,3.14594 0,4.19325 0.77158,1.04739 -1.03687,2.62089 -1.81204,1.8341 -0.76913,-0.78677 -2.83682,-3.14098 -2.31953,-3.92762 0.51479,-0.78678 -3.61927,-5.76809 0.51479,-6.55364 4.13298,-0.78678 -0.258,-3.14595 1.29366,-3.66711 l 2.06276,-1.04985 2.064,0 1.29245,-1.04987 -3.35644,-0.52121 -2.06276,-0.26309 -3.87604,-0.26184 c -3.87123,2.6209 -4.64405,5.76685 -4.64405,5.76685 -2.07006,3.9301 -6.97212,-1.5736 -5.16365,-3.6696 1.80474,-2.09725 -5.68328,-0.26307 -6.9757,0.78554 -1.29368,1.04739 -5.16615,0.5237 -5.16615,0.5237 -0.77278,2.36039 -4.38727,-0.25938 -3.35643,-1.83286 1.03323,-1.57235 1.03323,-2.6209 1.03323,-2.6209 l -1.2888,-0.26308 -1.54801,2.8828 c -3.61569,0 -4.65134,2.09476 -3.87728,3.40645 0.77401,1.30799 -1.03201,-0.26186 -1.55044,1.57235 -0.51236,1.8341 0.26164,1.8341 1.81204,2.6209 1.55045,0.78678 -0.77643,0.78678 0.2568,2.09476 1.032,1.31293 4.13173,0 2.32559,1.83658 -1.80722,1.83302 -5.42649,1.04985 -5.42649,1.04985 -0.25678,2.35418 -5.16366,1.83302 -5.67597,1.0474 -0.51966,-0.78678 -4.38975,-5.50494 -4.38975,-5.50494 l -4.91294,-0.26186 c -0.51236,-3.66711 2.32683,-1.8341 3.35891,-4.7169 1.03809,-2.88404 1.55403,-7.59845 1.55403,-7.59845 0,0 -4.13655,-0.26185 -4.39333,1.04738 -0.25557,1.3117 -2.83931,2.09724 -2.83931,2.09724 0,0 -2.06773,0.78431 -1.29244,1.8341 0.77522,1.04987 -1.55045,1.56987 -1.55045,1.56987 0,0 0.40283,1.69336 -0.25678,2.35915 -2.06276,2.09973 -7.23139,0.26061 -8.00296,-0.52369 l -3.1009,-1.31048 -3.09965,-2.096 -3.61321,1.56987 -1.03201,1.04985 -3.87604,0 -0.25557,3.14097 6.97213,0.78554 0.51722,6.48685 -2.84412,-0.97945 -1.80723,0 -0.7728,-1.5736 -1.55043,-0.26308 0,5.76436 1.55043,1.31295 1.29368,1.30675 2.58237,0.26308 0.51722,3.14346 6.45251,0.26556 0.77523,1.30799 3.87604,0.26309 7.48817,7.59721 -0.51722,2.36039 -1.29366,0.78677 c 0.51966,1.8341 -3.35286,0.78678 -3.35286,0.78678 l 0,1.56987 1.80241,0.26184 1.81205,1.04738 2.58004,-4.45391 c 2.8393,-1.8341 4.128,0.78678 4.39084,2.35915 0.25556,1.57235 -1.29487,1.30922 -1.29487,1.30922 l 0,3.67208 1.55043,0.52123 c 2.58611,3.14579 -1.032,4.98129 -1.032,4.98129 l -0.77643,2.61965 c -0.77523,2.35915 -3.61445,1.83302 -3.61445,1.83302 l -1.02958,1.57359 -3.10339,0.78677 6.13127,0.78554 c 0.58295,-2.09725 2.12847,-2.6209 2.90378,-1.57236 0.77643,1.04985 0.77643,2.88405 0.77643,2.88405 l 1.55527,0.26185 -0.26289,2.88156 1.55045,0.52617 0,8.38526 1.80723,2.096 c 3.09966,-1.30677 3.09966,0.78801 1.54803,1.8341 -1.54803,1.04615 -0.51724,5.76684 -0.51724,5.76684 l -1.29122,1.308 0,2.09849 -1.54801,1.04739 0,2.88156 c -2.58361,-1.30924 -5.68327,-0.78801 -6.45981,0 -2.31954,-1.5736 -7.22642,-1.04738 -7.22642,0.26433 1.5468,2.096 -1.80474,2.62089 -1.80474,2.62089 l -1.81204,2.09601 c 1.29367,2.62214 -1.28757,2.88155 -1.28757,2.88155 l 0,4.98129 -3.1009,2.8828 0.26166,6.81415 c 0,1.8341 3.87122,2.09476 4.6428,1.0474 0.77643,-1.0474 3.87729,2.09848 3.87729,2.09848 l 2.31953,0 0.51965,-4.71938 -1.55166,-0.78678 0,-7.60095 2.58361,-2.88404 c 3.09966,-1.0474 2.06773,6.81787 2.06773,7.60343 0.25678,2.88156 1.54436,2.6209 2.83931,2.09476 2.58128,-1.0474 0.51236,2.88653 -1.55045,2.6209 -2.064,-0.25938 -0.77644,2.62089 -0.77644,2.62089 l 1.29489,0.52617 -2.32684,1.8341 -2.06043,2.36039 -2.58859,-0.78802 -3.09484,-0.25937 -1.03321,-1.83907 -1.81096,-0.26062 -0.25677,3.66711 -1.2888,1.57236 -3.09965,3.14952 c 4.13298,0 -0.51966,2.87658 -1.55045,2.87658 2.32327,0.78678 -0.25678,3.14828 -6.19574,1.31542 l 0,1.83177 -2.06882,0.26307 1.81204,2.09352 2.06277,0.26308 -0.77523,4.45515 c 0,3.40646 -8.52009,1.04493 -9.29663,0.26186 l -0.2568,4.71814 -1.55043,0.25815 0.25678,3.14827 -0.25678,4.4564 2.8393,-0.52493 0,1.83535 6.97586,0.26308 10.07054,-10.74813 5.93772,-1.308 c 0.51478,-2.62462 3.09484,0.52493 3.09484,0.52493 2.58361,-0.26802 3.10089,1.56987 3.10089,1.56987 l 3.35892,0.52492 c 2.83682,0.78801 1.12207,1.06344 1.2888,2.09973 0.25558,1.56987 1.54801,1.04491 1.54801,1.04491 l 0.51966,-3.40645 1.55044,0.26184 -1.55044,-1.83534 -2.84413,-1.31295 -3.09608,-1.30799 c -2.06773,-2.88156 0.51601,-2.35667 2.58362,-2.09352 l 3.35643,0 c 0,0 3.87605,5.23822 3.87605,6.54991 0,1.31293 1.80722,1.57484 1.80722,1.57484 l 2.31954,-0.26309 0.77643,1.83177 2.32327,0 0.77644,1.56987 4.64886,0 0.258,-2.35666 -4.39457,-0.78183 -0.25556,-2.62463 -3.09609,-0.78678 c -1.03687,-4.45142 0.77156,-5.76436 2.06277,-3.66462 l 1.54922,0.2569 -0.51722,-3.93135 1.80598,-0.52492 -0.51478,-5.50494 -1.54801,-0.52 0,-1.83659 6.45251,0.2668 c -0.51235,-3.41143 0.26043,-4.98254 0.26043,-4.98254 l 1.80723,0 0.25677,1.31418 7.90075,0.74478 5.58603,-6.40778 c -0.28112,-0.4891 0.56103,-0.78801 -0.0524,-1.41668 -0.77643,-0.78554 -1.81204,0 -3.1082,-0.78554 -1.28758,-0.78184 0,-5.24071 -0.25558,-6.28801 -0.25678,-1.0474 4.39457,-2.62463 3.61927,-0.26186 -0.77521,2.36039 0,3.4077 0,3.4077 3.35643,-3.14595 6.19698,0.25937 5.9402,1.04738 -0.26409,0.78554 1.80474,1.57235 3.0936,0.78554 1.29366,-0.78554 2.84288,2.36039 2.32575,3.92886 -0.51966,1.57235 -5.16241,1.31293 -5.41919,-0.26062 -0.2641,-1.57359 -1.03932,-1.04738 -1.55045,-0.26061 -0.51966,0.78678 -2.83931,1.30801 -4.13298,0.52123 -0.26165,-0.15934 -0.387,-0.2915 -0.46002,-0.41748 l -5.58603,6.40778 0.36266,0.037 c 3.09608,1.83658 1.55045,4.19449 0.51966,4.71814 -1.03688,0.52493 -2.84412,0.52493 -2.84412,0.52493 l -0.51236,1.04986 -6.71535,0.52121 -0.51966,2.62339 c -3.35643,-0.52987 -4.64405,3.14346 -3.86999,4.97507 0.77644,1.83177 0,3.40645 0,3.40645 l 2.84039,1.31295 3.61197,-1.04492 c 0.51964,-2.62463 2.83931,-3.14952 4.90813,-4.71815 2.06276,-1.57359 5.42416,2.87659 4.38726,4.97632 -1.032,2.09352 -1.032,2.88156 -1.032,2.88156 l 0.25557,2.36024 -2.58005,1.04615 -2.064,1.04987 -0.26288,1.31169 -6.96964,0 -1.2888,1.30801 -3.35891,0.26802 -1.03687,1.56987 -2.31953,0.26308 c 0,0 -3.87605,1.83534 -2.32451,3.93135 1.54923,2.09848 -6.45376,1.83534 -8.2658,-1.04985 -0.51722,2.61841 -3.35643,0.26184 -3.35643,0.26184 l -2.83931,-0.78801 -0.25678,-3.92653 c -0.51722,-2.62338 -5.42416,-2.62338 -5.16366,-0.78678 0.25678,1.83534 -9.3002,0.78678 -9.3002,0.78678 l -3.09609,1.50439 -2.84412,1.64023 -0.25556,1.30801 -4.65135,0.52493 -2.06276,1.04985 -0.77401,-1.5736 -2.06401,0 -2.06773,2.88529 c -5.42167,0.26308 -10.58533,3.4077 -10.07054,4.71814 0.51722,1.308 -2.06276,2.62463 -2.06276,2.62463 l -2.32684,0.77689 -1.54558,2.36163 -3.09966,1.04985 -0.51966,5.50618 -1.54557,1.04491 0,2.36148 -1.81095,0.51999 0,1.31295 -2.58129,0.26184 1.54557,3.93259 2.07255,1.04985 c 3.61445,0.51998 2.06276,4.98004 2.06276,4.98004 l 2.064,0.25815 1.03687,2.88156 2.06276,4.19325 c 0.77643,3.14951 3.1009,2.36163 4.13298,2.09973 1.032,-0.25815 2.06276,3.14346 2.06276,3.14346 l 10.32731,0.26308 c 0,0 -0.51236,1.04985 1.29489,1.5736 1.80474,0.51998 13.6839,1.04986 14.20351,0.26308 -0.51966,-2.36148 6.45128,-2.88653 9.2954,-0.78801 2.83682,2.09352 6.71286,0.78801 6.71286,0.78801 l 3.87247,4.71208 2.58735,5.76809 4.38726,1.308 3.09609,0.788 1.03688,4.45516 2.31953,0.26308 0.77646,2.88529 c 2.84287,2.09476 -0.77646,6.55115 -0.77646,6.55115 l 0,5.76312 2.06774,1.04985 -0.26043,2.09973 3.36125,3.40148 3.87122,0.26678 9.81501,10.48126 7.7437,2.35666 1.28878,4.1945 2.07006,-0.26307 1.54801,-1.30801 6.19574,-0.26184 3.1009,-2.88653 3.35643,-0.51999 28.66334,-24.3744 -2.5861,-1.5736 0,-5.76311 c 4.64886,-3.40646 4.90688,-9.43753 0.51722,-9.96134 -3.32971,-0.3977 -1.80474,-3.93135 1.29487,-4.45515 l 1.80474,-0.78307 0,-2.36148 5.93896,-5.49997 0,-4.19449 -12.90736,-10.74813 c -5.68327,-2.09352 0,-14.67576 3.8689,-14.41276 3.87605,0.25812 -0.25556,-19.39266 -0.25556,-19.39266 l -2.06882,-1.04613 0.51966,-6.29298 -2.83931,0 -4.6501,6.03107 -1.28878,4.18952 c -0.51722,5.50992 -16.52818,4.45516 -17.30488,3.66836 -0.77523,-0.78678 -6.19574,-3.14346 -6.19574,-3.14346 0,0 -4.13173,-3.40645 -4.90688,-2.35666 -0.77523,1.04985 -4.38727,-1.31294 -4.38727,-0.52493 0,0.78677 -3.35643,-1.83177 -3.35643,-1.83177 l -5.16366,-1.83658 3.87604,-0.78801 -0.77643,-3.14346 6.70805,3.40645 c 0.77643,1.04492 4.13297,0.78802 4.13297,0.78802 l 1.03201,1.31169 c 0,0 2.06881,-0.26678 3.36373,1.30801 1.28879,1.5736 8.00048,0.26307 8.00048,0.26307 l 1.80722,1.56987 2.83931,1.04986 8.00778,0.26307 0.25677,-4.97632 1.55045,-1.57359 -0.25921,-3.14828 1.80722,-1.56986 0,-2.61842 1.55045,-0.52492 0.25678,-5.76312 1.28879,-0.26308 0,-12.58099 -3.87247,-3.67084 c -0.25556,1.31293 -4.38727,1.31293 -4.38727,1.31293 0,0 -1.032,1.83177 -1.80722,1.83177 -0.77279,0 1.03321,2.35667 0.51478,3.93135 -0.51478,1.56986 -2.58237,1.56986 -2.58237,1.56986 l -3.87605,1.0511 -1.03202,1.3117 -4.13297,0 -0.51235,-3.40645 4.64405,-1.31293 2.58237,-1.30677 1.29366,-2.62462 c 0.25556,-2.61717 3.35643,-2.35791 3.35643,-2.35791 0,0 5.93896,-4.98005 6.19574,-7.33423 0.26287,-2.36023 2.32684,-8.91263 5.9402,-8.91263 l 6.71535,0 c 2.58004,-1.05109 1.80599,-4.4564 1.80599,-4.4564 l 3.35767,-0.52122 0.51724,1.8341 c 0,0 4.6501,0.52369 5.16365,-0.26307 0.51965,-0.78309 1.55044,-2.6209 2.84413,-1.83426 1.29,0.78556 5.42167,-1.83534 5.42167,-1.83534 0.2568,-1.8341 6.71287,-1.04738 6.71287,-1.04738 l 0.77643,-2.35791 c 0,0 -4.38851,-6.0275 -5.16365,-6.0275 -0.77644,0 -4.90689,-3.67208 -5.42541,-2.36024 -4.12676,-1.04739 -3.87123,-6.81414 -3.87123,-6.81414 l -1.55045,-3.66712 c 0,-2.09973 -3.86874,-6.55364 -4.64886,-6.02734 -3.87604,-2.8828 -1.03202,-6.2905 0,-6.5524 1.032,-0.26062 3.61818,-3.93135 3.61818,-3.93135 l 1.28879,-3.6696 4.38976,-1.30676 0.51722,-3.4077 -2.31954,-0.26308 c 0,0 2.57756,-4.71814 3.87123,-4.71814 1.29366,0 9.81501,0 10.58409,-0.52617 0.77523,-0.52123 2.32327,-4.71442 2.32327,-5.50121 0,-0.78677 2.0713,-1.04986 2.84039,-1.31294 0.77523,-0.25937 2.58238,-2.35666 3.09966,-3.40645 0.51722,-1.05479 -1.28636,-7.6084 -2.32203,-6.5597 z"
       id="path241" />
    <path
       inkscape:connector-curvature="0"
       style="fill:#e6e6e6"
       d="m 256,603.95402 c 0.387,-0.38782 0.77644,1.18078 1.55043,0.9844 0.76915,-0.19639 1.16101,1.37717 0.38823,1.37717 -0.77644,0 -0.77644,0.98439 -0.77644,1.37715 0,0.39402 0,1.37347 -0.58294,1.96381 -0.58051,0.59039 -1.16344,0.19638 -1.93989,-0.19638 -0.77278,-0.39278 -1.15613,-0.39278 -2.12847,-0.39278 -0.96627,0 -0.19593,1.5736 -0.19593,1.5736 0,0 -4.06711,-0.1964 -3.29072,-0.78803 0.77522,-0.58544 1.55045,-0.78676 0.97115,-1.18077 -0.58293,-0.39278 0,-0.78307 0,-1.56987 0,-0.788 1.9374,-0.39276 1.35208,-0.98438 -0.57685,-0.59041 0.0124,-2.87038 0.96751,-1.5736 l 0.58415,-1.37841 c -0.58415,-0.58791 -0.19228,-0.78677 -1.3545,-1.17336 -1.16101,-0.394 -0.19716,-2.75433 -0.19716,-2.75433 l 0.19716,-1.57236 c 0.387,-1.96132 4.25818,-2.1614 4.45422,-0.394 0.19107,1.76994 0,2.94944 0,2.94944 l 1.16345,0.39153 c 0,0 -0.19594,1.18572 -1.16345,1.18572 -0.97236,0 0,0.58174 -0.58293,1.1746 l 0.58416,0.98069 z"
       id="path245" />
    <path
       inkscape:connector-curvature="0"
       style="fill:#e6e6e6"
       d="m 243.21551,605.92684 c 0.58295,-1.18079 1.93616,-6.2905 3.48785,-4.7169 1.54436,1.57235 2.51558,0 2.51558,0 0,0 0.77523,0.788 0.38702,2.36039 -0.38702,1.56986 -0.77646,3.1447 -1.74758,3.34105 -0.96507,0.1964 -1.74152,0.78678 -2.89771,0.98316 -1.16101,0.19763 -1.74509,-1.96753 -1.74509,-1.96753 z"
       id="path247" />
  </g>
  <text
     xml:space="preserve"
     style="font-style:normal;font-weight:normal;font-size:15.20912552px;line-height:125%;font-family:sans-serif;text-align:center;letter-spacing:0px;word-spacing:0px;text-anchor:middle;fill:#000000;fill-opacity:1;stroke:none;stroke-width:1px;stroke-linecap:butt;stroke-linejoin:miter;stroke-opacity:1"
     x="411.03415"
     y="160.41141"
     id="text4472"
     sodipodi:linespacing="125%"
     transform="matrix(0.96592583,0.25881905,-0.25881905,0.96592583,0,0)"><tspan
       sodipodi:role="line"
       id="tspan4474"
       x="411.03415"
       y="160.41141"
       style="font-style:normal;font-variant:normal;font-weight:bold;font-stretch:normal;font-family:Copperplate;-inkscape-font-specification:'Copperplate Bold';text-align:center;text-anchor:middle">I</tspan></text>
  <text
     sodipodi:linespacing="125%"
     id="text4478"
     y="252.39726"
     x="288.33209"
     style="font-style:normal;font-weight:normal;font-size:15.20912552px;line-height:125%;font-family:sans-serif;text-align:center;letter-spacing:0px;word-spacing:0px;text-anchor:middle;fill:#000000;fill-opacity:1;stroke:none;stroke-width:1px;stroke-linecap:butt;stroke-linejoin:miter;stroke-opacity:1"
     xml:space="preserve"><tspan
       style="font-style:normal;font-variant:normal;font-weight:bold;font-stretch:normal;font-family:Copperplate;-inkscape-font-specification:'Copperplate Bold';text-align:center;text-anchor:middle"
       y="252.39726"
       x="288.33209"
       id="tspan4480"
       sodipodi:role="line">XXIV</tspan></text>
  <text
     transform="matrix(0.70710678,0.70710678,-0.70710678,0.70710678,0,0)"
     sodipodi:linespacing="125%"
     id="text4492"
     y="-101.21083"
     x="566.01752"
     style="font-style:normal;font-weight:normal;font-size:15.20912552px;line-height:125%;font-family:sans-serif;text-align:center;letter-spacing:0px;word-spacing:0px;text-anchor:middle;fill:#000000;fill-opacity:1;stroke:none;stroke-width:1px;stroke-linecap:butt;stroke-linejoin:miter;stroke-opacity:1"
     xml:space="preserve"><tspan
       style="font-style:normal;font-variant:normal;font-weight:bold;font-stretch:normal;font-family:Copperplate;-inkscape-font-specification:'Copperplate Bold';text-align:center;text-anchor:middle"
       y="-101.21083"
       x="566.01752"
       id="tspan4494"
       sodipodi:role="line">III</tspan></text>
  <text
     xml:space="preserve"
     style="font-style:normal;font-weight:normal;font-size:15.20912552px;line-height:125%;font-family:sans-serif;text-align:center;letter-spacing:0px;word-spacing:0px;text-anchor:middle;fill:#000000;fill-opacity:1;stroke:none;stroke-width:1px;stroke-linecap:butt;stroke-linejoin:miter;stroke-opacity:1"
     x="505.74744"
     y="39.802261"
     id="text4496"
     sodipodi:linespacing="125%"
     transform="matrix(0.8660254,0.5,-0.5,0.8660254,0,0)"><tspan
       sodipodi:role="line"
       id="tspan4498"
       x="505.74744"
       y="39.802261"
       style="font-style:normal;font-variant:normal;font-weight:bold;font-stretch:normal;font-family:Copperplate;-inkscape-font-specification:'Copperplate Bold';text-align:center;text-anchor:middle">II</tspan></text>
  <text
     transform="matrix(0.25881904,0.96592583,-0.96592583,0.25881904,0,0)"
     sodipodi:linespacing="125%"
     id="text4500"
     y="-405.27408"
     x="569.42603"
     style="font-style:normal;font-weight:normal;font-size:15.20912552px;line-height:125%;font-family:sans-serif;text-align:center;letter-spacing:0px;word-spacing:0px;text-anchor:middle;fill:#000000;fill-opacity:1;stroke:none;stroke-width:1px;stroke-linecap:butt;stroke-linejoin:miter;stroke-opacity:1"
     xml:space="preserve"><tspan
       style="font-style:normal;font-variant:normal;font-weight:bold;font-stretch:normal;font-family:Copperplate;-inkscape-font-specification:'Copperplate Bold';text-align:center;text-anchor:middle"
       y="-405.27408"
       x="569.42603"
       id="tspan4502"
       sodipodi:role="line">V</tspan></text>
  <text
     xml:space="preserve"
     style="font-style:normal;font-weight:normal;font-size:15.20912552px;line-height:125%;font-family:sans-serif;text-align:center;letter-spacing:0px;word-spacing:0px;text-anchor:middle;fill:#000000;fill-opacity:1;stroke:none;stroke-width:1px;stroke-linecap:butt;stroke-linejoin:miter;stroke-opacity:1"
     x="587.73706"
     y="-253.01808"
     id="text4504"
     sodipodi:linespacing="125%"
     transform="matrix(0.5,0.8660254,-0.8660254,0.5,0,0)"><tspan
       sodipodi:role="line"
       id="tspan4506"
       x="587.73706"
       y="-253.01808"
       style="font-style:normal;font-variant:normal;font-weight:bold;font-stretch:normal;font-family:Copperplate;-inkscape-font-specification:'Copperplate Bold';text-align:center;text-anchor:middle">IV</tspan></text>
  <text
     xml:space="preserve"
     style="font-style:normal;font-weight:normal;font-size:15.20912552px;line-height:125%;font-family:sans-serif;text-align:center;letter-spacing:0px;word-spacing:0px;text-anchor:middle;fill:#000000;fill-opacity:1;stroke:none;stroke-width:1px;stroke-linecap:butt;stroke-linejoin:miter;stroke-opacity:1"
     x="420.34625"
     y="-670.30475"
     id="text4508"
     sodipodi:linespacing="125%"
     transform="matrix(-0.25881905,0.96592583,-0.96592583,-0.25881905,0,0)"><tspan
       sodipodi:role="line"
       id="tspan4510"
       x="420.34625"
       y="-670.30475"
       style="font-style:normal;font-variant:normal;font-weight:bold;font-stretch:normal;font-family:Copperplate;-inkscape-font-specification:'Copperplate Bold';text-align:center;text-anchor:middle">VII</tspan></text>
  <text
     transform="matrix(0,1,-1,0,0,0)"
     sodipodi:linespacing="125%"
     id="text4512"
     y="-547.60284"
     x="512.33209"
     style="font-style:normal;font-weight:normal;font-size:15.20912552px;line-height:125%;font-family:sans-serif;text-align:center;letter-spacing:0px;word-spacing:0px;text-anchor:middle;fill:#000000;fill-opacity:1;stroke:none;stroke-width:1px;stroke-linecap:butt;stroke-linejoin:miter;stroke-opacity:1"
     xml:space="preserve"><tspan
       style="font-style:normal;font-variant:normal;font-weight:bold;font-stretch:normal;font-family:Copperplate;-inkscape-font-specification:'Copperplate Bold';text-align:center;text-anchor:middle"
       y="-547.60284"
       x="512.33209"
       id="tspan4514"
       sodipodi:role="line">VI</tspan></text>
  <text
     transform="matrix(-0.70710678,0.70710678,-0.70710678,-0.70710678,0,0)"
     sodipodi:linespacing="125%"
     id="text4516"
     y="-825.28815"
     x="158.72401"
     style="font-style:normal;font-weight:normal;font-size:15.20912552px;line-height:125%;font-family:sans-serif;text-align:center;letter-spacing:0px;word-spacing:0px;text-anchor:middle;fill:#000000;fill-opacity:1;stroke:none;stroke-width:1px;stroke-linecap:butt;stroke-linejoin:miter;stroke-opacity:1"
     xml:space="preserve"><tspan
       style="font-style:normal;font-variant:normal;font-weight:bold;font-stretch:normal;font-family:Copperplate;-inkscape-font-specification:'Copperplate Bold';text-align:center;text-anchor:middle"
       y="-825.28815"
       x="158.72401"
       id="tspan4518"
       sodipodi:role="line">IX</tspan></text>
  <text
     xml:space="preserve"
     style="font-style:normal;font-weight:normal;font-size:15.20912552px;line-height:125%;font-family:sans-serif;text-align:center;letter-spacing:0px;word-spacing:0px;text-anchor:middle;fill:#000000;fill-opacity:1;stroke:none;stroke-width:1px;stroke-linecap:butt;stroke-linejoin:miter;stroke-opacity:1"
     x="299.73709"
     y="-765.01813"
     id="text4520"
     sodipodi:linespacing="125%"
     transform="matrix(-0.5,0.8660254,-0.8660254,-0.5,0,0)"><tspan
       sodipodi:role="line"
       id="tspan4522"
       x="299.73709"
       y="-765.01813"
       style="font-style:normal;font-variant:normal;font-weight:bold;font-stretch:normal;font-family:Copperplate;-inkscape-font-specification:'Copperplate Bold';text-align:center;text-anchor:middle">VIII</tspan></text>
  <text
     xml:space="preserve"
     style="font-style:normal;font-weight:normal;font-size:15.20912552px;line-height:125%;font-family:sans-serif;text-align:center;letter-spacing:0px;word-spacing:0px;text-anchor:middle;fill:#000000;fill-opacity:1;stroke:none;stroke-width:1px;stroke-linecap:butt;stroke-linejoin:miter;stroke-opacity:1"
     x="-145.33922"
     y="-828.69666"
     id="text4524"
     sodipodi:linespacing="125%"
     transform="matrix(-0.96592583,0.25881905,-0.25881905,-0.96592583,0,0)"><tspan
       sodipodi:role="line"
       id="tspan4526"
       x="-145.33922"
       y="-828.69666"
       style="font-style:normal;font-variant:normal;font-weight:bold;font-stretch:normal;font-family:Copperplate;-inkscape-font-specification:'Copperplate Bold';text-align:center;text-anchor:middle">XI</tspan></text>
  <text
     transform="matrix(-0.8660254,0.5,-0.5,-0.8660254,0,0)"
     sodipodi:linespacing="125%"
     id="text4528"
     y="-847.00775"
     x="6.9167719"
     style="font-style:normal;font-weight:normal;font-size:15.20912552px;line-height:125%;font-family:sans-serif;text-align:center;letter-spacing:0px;word-spacing:0px;text-anchor:middle;fill:#000000;fill-opacity:1;stroke:none;stroke-width:1px;stroke-linecap:butt;stroke-linejoin:miter;stroke-opacity:1"
     xml:space="preserve"><tspan
       style="font-style:normal;font-variant:normal;font-weight:bold;font-stretch:normal;font-family:Copperplate;-inkscape-font-specification:'Copperplate Bold';text-align:center;text-anchor:middle"
       y="-847.00775"
       x="6.9167719"
       id="tspan4530"
       sodipodi:role="line">X</tspan></text>
  <text
     xml:space="preserve"
     style="font-style:normal;font-weight:normal;font-size:15.20912552px;line-height:125%;font-family:sans-serif;text-align:center;letter-spacing:0px;word-spacing:0px;text-anchor:middle;fill:#000000;fill-opacity:1;stroke:none;stroke-width:1px;stroke-linecap:butt;stroke-linejoin:miter;stroke-opacity:1"
     x="-410.36993"
     y="-679.61688"
     id="text4532"
     sodipodi:linespacing="125%"
     transform="matrix(-0.96592582,-0.25881905,0.25881905,-0.96592582,0,0)"><tspan
       sodipodi:role="line"
       id="tspan4534"
       x="-410.36993"
       y="-679.61688"
       style="font-style:normal;font-variant:normal;font-weight:bold;font-stretch:normal;font-family:Copperplate;-inkscape-font-specification:'Copperplate Bold';text-align:center;text-anchor:middle">XIII</tspan></text>
  <text
     transform="scale(-1,-1)"
     sodipodi:linespacing="125%"
     id="text4536"
     y="-771.60278"
     x="-287.66794"
     style="font-style:normal;font-weight:normal;font-size:15.20912552px;line-height:125%;font-family:sans-serif;text-align:center;letter-spacing:0px;word-spacing:0px;text-anchor:middle;fill:#000000;fill-opacity:1;stroke:none;stroke-width:1px;stroke-linecap:butt;stroke-linejoin:miter;stroke-opacity:1"
     xml:space="preserve"><tspan
       style="font-style:normal;font-variant:normal;font-weight:bold;font-stretch:normal;font-family:Copperplate;-inkscape-font-specification:'Copperplate Bold';text-align:center;text-anchor:middle"
       y="-771.60278"
       x="-287.66794"
       id="tspan4538"
       sodipodi:role="line">XII</tspan></text>
  <text
     transform="matrix(-0.70710678,-0.70710678,0.70710678,-0.70710678,0,0)"
     sodipodi:linespacing="125%"
     id="text4540"
     y="-417.99469"
     x="-565.35333"
     style="font-style:normal;font-weight:normal;font-size:15.20912552px;line-height:125%;font-family:sans-serif;text-align:center;letter-spacing:0px;word-spacing:0px;text-anchor:middle;fill:#000000;fill-opacity:1;stroke:none;stroke-width:1px;stroke-linecap:butt;stroke-linejoin:miter;stroke-opacity:1"
     xml:space="preserve"><tspan
       style="font-style:normal;font-variant:normal;font-weight:bold;font-stretch:normal;font-family:Copperplate;-inkscape-font-specification:'Copperplate Bold';text-align:center;text-anchor:middle"
       y="-417.99469"
       x="-565.35333"
       id="tspan4542"
       sodipodi:role="line">XV</tspan></text>
  <text
     xml:space="preserve"
     style="font-style:normal;font-weight:normal;font-size:15.20912552px;line-height:125%;font-family:sans-serif;text-align:center;letter-spacing:0px;word-spacing:0px;text-anchor:middle;fill:#000000;fill-opacity:1;stroke:none;stroke-width:1px;stroke-linecap:butt;stroke-linejoin:miter;stroke-opacity:1"
     x="-505.08325"
     y="-559.00781"
     id="text4544"
     sodipodi:linespacing="125%"
     transform="matrix(-0.8660254,-0.5,0.5,-0.8660254,0,0)"><tspan
       sodipodi:role="line"
       id="tspan4546"
       x="-505.08325"
       y="-559.00781"
       style="font-style:normal;font-variant:normal;font-weight:bold;font-stretch:normal;font-family:Copperplate;-inkscape-font-specification:'Copperplate Bold';text-align:center;text-anchor:middle">XIV</tspan></text>
  <text
     xml:space="preserve"
     style="font-style:normal;font-weight:normal;font-size:15.20912552px;line-height:125%;font-family:sans-serif;text-align:center;letter-spacing:0px;word-spacing:0px;text-anchor:middle;fill:#000000;fill-opacity:1;stroke:none;stroke-width:1px;stroke-linecap:butt;stroke-linejoin:miter;stroke-opacity:1"
     x="-568.76184"
     y="-113.93141"
     id="text4548"
     sodipodi:linespacing="125%"
     transform="matrix(-0.25881905,-0.96592583,0.96592583,-0.25881905,0,0)"><tspan
       sodipodi:role="line"
       id="tspan4550"
       x="-568.76184"
       y="-113.93141"
       style="font-style:normal;font-variant:normal;font-weight:bold;font-stretch:normal;font-family:Copperplate;-inkscape-font-specification:'Copperplate Bold';text-align:center;text-anchor:middle">XVII</tspan></text>
  <text
     transform="matrix(-0.5,-0.8660254,0.8660254,-0.5,0,0)"
     sodipodi:linespacing="125%"
     id="text4552"
     y="-266.18738"
     x="-587.07294"
     style="font-style:normal;font-weight:normal;font-size:15.20912552px;line-height:125%;font-family:sans-serif;text-align:center;letter-spacing:0px;word-spacing:0px;text-anchor:middle;fill:#000000;fill-opacity:1;stroke:none;stroke-width:1px;stroke-linecap:butt;stroke-linejoin:miter;stroke-opacity:1"
     xml:space="preserve"><tspan
       style="font-style:normal;font-variant:normal;font-weight:bold;font-stretch:normal;font-family:Copperplate;-inkscape-font-specification:'Copperplate Bold';text-align:center;text-anchor:middle"
       y="-266.18738"
       x="-587.07294"
       id="tspan4554"
       sodipodi:role="line">XVI</tspan></text>
  <text
     transform="matrix(0.25881904,-0.96592583,0.96592583,0.25881904,0,0)"
     sodipodi:linespacing="125%"
     id="text4556"
     y="151.09929"
     x="-419.6821"
     style="font-style:normal;font-weight:normal;font-size:15.20912552px;line-height:125%;font-family:sans-serif;text-align:center;letter-spacing:0px;word-spacing:0px;text-anchor:middle;fill:#000000;fill-opacity:1;stroke:none;stroke-width:1px;stroke-linecap:butt;stroke-linejoin:miter;stroke-opacity:1"
     xml:space="preserve"><tspan
       style="font-style:normal;font-variant:normal;font-weight:bold;font-stretch:normal;font-family:Copperplate;-inkscape-font-specification:'Copperplate Bold';text-align:center;text-anchor:middle"
       y="151.09929"
       x="-419.6821"
       id="tspan4558"
       sodipodi:role="line">XIX</tspan></text>
  <text
     xml:space="preserve"
     style="font-style:normal;font-weight:normal;font-size:15.20912552px;line-height:125%;font-family:sans-serif;text-align:center;letter-spacing:0px;word-spacing:0px;text-anchor:middle;fill:#000000;fill-opacity:1;stroke:none;stroke-width:1px;stroke-linecap:butt;stroke-linejoin:miter;stroke-opacity:1"
     x="-511.66794"
     y="28.397272"
     id="text4560"
     sodipodi:linespacing="125%"
     transform="matrix(0,-1,1,0,0,0)"><tspan
       sodipodi:role="line"
       id="tspan4562"
       x="-511.66794"
       y="28.397272"
       style="font-style:normal;font-variant:normal;font-weight:bold;font-stretch:normal;font-family:Copperplate;-inkscape-font-specification:'Copperplate Bold';text-align:center;text-anchor:middle">XVIII</tspan></text>
  <text
     transform="matrix(0.70710679,-0.70710678,0.70710678,0.70710679,0,0)"
     sodipodi:linespacing="125%"
     id="text4564"
     y="306.08276"
     x="-158.0598"
     style="font-style:normal;font-weight:normal;font-size:15.20912552px;line-height:125%;font-family:sans-serif;text-align:center;letter-spacing:0px;word-spacing:0px;text-anchor:middle;fill:#000000;fill-opacity:1;stroke:none;stroke-width:1px;stroke-linecap:butt;stroke-linejoin:miter;stroke-opacity:1"
     xml:space="preserve"><tspan
       style="font-style:normal;font-variant:normal;font-weight:bold;font-stretch:normal;font-family:Copperplate;-inkscape-font-specification:'Copperplate Bold';text-align:center;text-anchor:middle"
       y="306.08276"
       x="-158.0598"
       id="tspan4566"
       sodipodi:role="line">XXI</tspan></text>
  <text
     xml:space="preserve"
     style="font-style:normal;font-weight:normal;font-size:15.20912552px;line-height:125%;font-family:sans-serif;text-align:center;letter-spacing:0px;word-spacing:0px;text-anchor:middle;fill:#000000;fill-opacity:1;stroke:none;stroke-width:1px;stroke-linecap:butt;stroke-linejoin:miter;stroke-opacity:1"
     x="-299.07291"
     y="245.81259"
     id="text4568"
     sodipodi:linespacing="125%"
     transform="matrix(0.5,-0.8660254,0.8660254,0.5,0,0)"><tspan
       sodipodi:role="line"
       id="tspan4570"
       x="-299.07291"
       y="245.81259"
       style="font-style:normal;font-variant:normal;font-weight:bold;font-stretch:normal;font-family:Copperplate;-inkscape-font-specification:'Copperplate Bold';text-align:center;text-anchor:middle">XX</tspan></text>
  <text
     xml:space="preserve"
     style="font-style:normal;font-weight:normal;font-size:15.20912552px;line-height:125%;font-family:sans-serif;text-align:center;letter-spacing:0px;word-spacing:0px;text-anchor:middle;fill:#000000;fill-opacity:1;stroke:none;stroke-width:1px;stroke-linecap:butt;stroke-linejoin:miter;stroke-opacity:1"
     x="146.00342"
     y="309.49115"
     id="text4572"
     sodipodi:linespacing="125%"
     transform="matrix(0.96592583,-0.25881905,0.25881905,0.96592583,0,0)"><tspan
       sodipodi:role="line"
       id="tspan4574"
       x="146.00342"
       y="309.49115"
       style="font-style:normal;font-variant:normal;font-weight:bold;font-stretch:normal;font-family:Copperplate;-inkscape-font-specification:'Copperplate Bold';text-align:center;text-anchor:middle">XXIII</tspan></text>
  <text
     transform="matrix(0.8660254,-0.5,0.5,0.8660254,0,0)"
     sodipodi:linespacing="125%"
     id="text4576"
     y="327.80231"
     x="-6.2525873"
     style="font-style:normal;font-weight:normal;font-size:15.20912552px;line-height:125%;font-family:sans-serif;text-align:center;letter-spacing:0px;word-spacing:0px;text-anchor:middle;fill:#000000;fill-opacity:1;stroke:none;stroke-width:1px;stroke-linecap:butt;stroke-linejoin:miter;stroke-opacity:1"
     xml:space="preserve"><tspan
       style="font-style:normal;font-variant:normal;font-weight:bold;font-stretch:normal;font-family:Copperplate;-inkscape-font-specification:'Copperplate Bold';text-align:center;text-anchor:middle"
       y="327.80231"
       x="-6.2525873"
       id="tspan4578"
       sodipodi:role="line">XXII</tspan></text>
  <g
     id="g4741"
     style="stroke:#808080;stroke-width:0.1;stroke-miterlimit:4;stroke-dasharray:none"
     transform="translate(16.000039,-15.999984)">
    <g
       style="fill:none;stroke:#808080;stroke-width:0.1;stroke-miterlimit:4;stroke-dasharray:none"
       id="g4658">
      <circle
         style="fill:none;stroke:#808080;stroke-width:0.1;stroke-miterlimit:4;stroke-dasharray:none"
         id="path4600"
         cx="272"
         cy="528"
         r="224" />
      <circle
         r="192"
         cy="528"
         cx="272"
         id="circle4631"
         style="fill:none;stroke:#808080;stroke-width:0.1;stroke-miterlimit:4;stroke-dasharray:none" />
      <circle
         style="fill:none;stroke:#808080;stroke-width:0.1;stroke-miterlimit:4;stroke-dasharray:none"
         id="circle4633"
         cx="272"
         cy="528"
         r="160" />
      <circle
         r="128"
         cy="528.84747"
         cx="272"
         id="circle4635"
         style="fill:none;stroke:#808080;stroke-width:0.1;stroke-miterlimit:4;stroke-dasharray:none" />
      <circle
         style="fill:none;stroke:#808080;stroke-width:0.1;stroke-miterlimit:4;stroke-dasharray:none"
         id="circle4637"
         cx="272"
         cy="528"
         r="96" />
      <circle
         r="64"
         cy="528"
         cx="272"
         id="circle4639"
         style="fill:none;stroke:#808080;stroke-width:0.1;stroke-miterlimit:4;stroke-dasharray:none" />
      <circle
         style="fill:none;stroke:#808080;stroke-width:0.1;stroke-miterlimit:4;stroke-dasharray:none"
         id="circle4641"
         cx="272"
         cy="528"
         r="32" />
    </g>
    <g
       id="g4715"
       style="stroke:#808080;stroke-width:0.1;stroke-miterlimit:4;stroke-dasharray:none">
      <path
         style="fill:none;fill-rule:evenodd;stroke:#808080;stroke-width:0.1;stroke-linecap:butt;stroke-linejoin:miter;stroke-miterlimit:4;stroke-dasharray:none;stroke-opacity:1"
         d="m 272,496 0,-224"
         id="path4667"
         inkscape:connector-curvature="0"
         sodipodi:nodetypes="cc" />
      <path
         sodipodi:nodetypes="cc"
         inkscape:connector-curvature="0"
         id="path4669"
         d="m 272,784 0,-224"
         style="fill:none;fill-rule:evenodd;stroke:#808080;stroke-width:0.1;stroke-linecap:butt;stroke-linejoin:miter;stroke-miterlimit:4;stroke-dasharray:none;stroke-opacity:1" />
      <path
         sodipodi:nodetypes="cc"
         inkscape:connector-curvature="0"
         id="path4671"
         d="M 280.28221,497.09037 338.25768,280.72299"
         style="fill:none;fill-rule:evenodd;stroke:#808080;stroke-width:0.1;stroke-linecap:butt;stroke-linejoin:miter;stroke-miterlimit:4;stroke-dasharray:none;stroke-opacity:1" />
      <path
         style="fill:none;fill-rule:evenodd;stroke:#808080;stroke-width:0.1;stroke-linecap:butt;stroke-linejoin:miter;stroke-miterlimit:4;stroke-dasharray:none;stroke-opacity:1"
         d="M 205.74232,775.27701 263.71779,558.90963"
         id="path4673"
         inkscape:connector-curvature="0"
         sodipodi:nodetypes="cc" />
      <path
         sodipodi:nodetypes="cc"
         inkscape:connector-curvature="0"
         id="path4675"
         d="M 288,500.28719 400,306.2975"
         style="fill:none;fill-rule:evenodd;stroke:#808080;stroke-width:0.1;stroke-linecap:butt;stroke-linejoin:miter;stroke-miterlimit:4;stroke-dasharray:none;stroke-opacity:1" />
      <path
         style="fill:none;fill-rule:evenodd;stroke:#808080;stroke-width:0.1;stroke-linecap:butt;stroke-linejoin:miter;stroke-miterlimit:4;stroke-dasharray:none;stroke-opacity:1"
         d="M 144,749.7025 256,555.71281"
         id="path4677"
         inkscape:connector-curvature="0"
         sodipodi:nodetypes="cc" />
      <path
         style="fill:none;fill-rule:evenodd;stroke:#808080;stroke-width:0.1;stroke-linecap:butt;stroke-linejoin:miter;stroke-miterlimit:4;stroke-dasharray:none;stroke-opacity:1"
         d="M 294.62742,505.37258 453.01934,346.98067"
         id="path4679"
         inkscape:connector-curvature="0"
         sodipodi:nodetypes="cc" />
      <path
         sodipodi:nodetypes="cc"
         inkscape:connector-curvature="0"
         id="path4681"
         d="M 90.980661,709.01933 249.37258,550.62742"
         style="fill:none;fill-rule:evenodd;stroke:#808080;stroke-width:0.1;stroke-linecap:butt;stroke-linejoin:miter;stroke-miterlimit:4;stroke-dasharray:none;stroke-opacity:1" />
      <path
         sodipodi:nodetypes="cc"
         inkscape:connector-curvature="0"
         id="path4683"
         d="M 299.71281,512 493.7025,400"
         style="fill:none;fill-rule:evenodd;stroke:#808080;stroke-width:0.1;stroke-linecap:butt;stroke-linejoin:miter;stroke-miterlimit:4;stroke-dasharray:none;stroke-opacity:1" />
      <path
         style="fill:none;fill-rule:evenodd;stroke:#808080;stroke-width:0.1;stroke-linecap:butt;stroke-linejoin:miter;stroke-miterlimit:4;stroke-dasharray:none;stroke-opacity:1"
         d="M 50.297497,656 244.28719,544"
         id="path4685"
         inkscape:connector-curvature="0"
         sodipodi:nodetypes="cc" />
      <path
         style="fill:none;fill-rule:evenodd;stroke:#808080;stroke-width:0.1;stroke-linecap:butt;stroke-linejoin:miter;stroke-miterlimit:4;stroke-dasharray:none;stroke-opacity:1"
         d="M 302.90963,519.71779 519.27701,461.74233"
         id="path4687"
         inkscape:connector-curvature="0"
         sodipodi:nodetypes="cc" />
      <path
         sodipodi:nodetypes="cc"
         inkscape:connector-curvature="0"
         id="path4689"
         d="M 24.722988,594.25767 241.09037,536.28221"
         style="fill:none;fill-rule:evenodd;stroke:#808080;stroke-width:0.1;stroke-linecap:butt;stroke-linejoin:miter;stroke-miterlimit:4;stroke-dasharray:none;stroke-opacity:1" />
      <path
         style="fill:none;fill-rule:evenodd;stroke:#808080;stroke-width:0.1;stroke-linecap:butt;stroke-linejoin:miter;stroke-miterlimit:4;stroke-dasharray:none;stroke-opacity:1"
         d="m 304,528 224,0"
         id="path4691"
         inkscape:connector-curvature="0"
         sodipodi:nodetypes="cc" />
      <path
         sodipodi:nodetypes="cc"
         inkscape:connector-curvature="0"
         id="path4693"
         d="M 16.000003,528 240,528"
         style="fill:none;fill-rule:evenodd;stroke:#808080;stroke-width:0.1;stroke-linecap:butt;stroke-linejoin:miter;stroke-miterlimit:4;stroke-dasharray:none;stroke-opacity:1" />
      <path
         sodipodi:nodetypes="cc"
         inkscape:connector-curvature="0"
         id="path4695"
         d="m 302.90963,536.28221 216.36738,57.97547"
         style="fill:none;fill-rule:evenodd;stroke:#808080;stroke-width:0.1;stroke-linecap:butt;stroke-linejoin:miter;stroke-miterlimit:4;stroke-dasharray:none;stroke-opacity:1" />
      <path
         style="fill:none;fill-rule:evenodd;stroke:#808080;stroke-width:0.1;stroke-linecap:butt;stroke-linejoin:miter;stroke-miterlimit:4;stroke-dasharray:none;stroke-opacity:1"
         d="M 24.722992,461.74232 241.09037,519.71779"
         id="path4697"
         inkscape:connector-curvature="0"
         sodipodi:nodetypes="cc" />
      <path
         style="fill:none;fill-rule:evenodd;stroke:#808080;stroke-width:0.1;stroke-linecap:butt;stroke-linejoin:miter;stroke-miterlimit:4;stroke-dasharray:none;stroke-opacity:1"
         d="M 299.71281,544 493.7025,656"
         id="path4699"
         inkscape:connector-curvature="0"
         sodipodi:nodetypes="cc" />
      <path
         sodipodi:nodetypes="cc"
         inkscape:connector-curvature="0"
         id="path4701"
         d="M 50.297498,400 244.28719,512"
         style="fill:none;fill-rule:evenodd;stroke:#808080;stroke-width:0.1;stroke-linecap:butt;stroke-linejoin:miter;stroke-miterlimit:4;stroke-dasharray:none;stroke-opacity:1" />
      <path
         sodipodi:nodetypes="cc"
         inkscape:connector-curvature="0"
         id="path4703"
         d="M 294.62742,550.62742 453.01933,709.01934"
         style="fill:none;fill-rule:evenodd;stroke:#808080;stroke-width:0.1;stroke-linecap:butt;stroke-linejoin:miter;stroke-miterlimit:4;stroke-dasharray:none;stroke-opacity:1" />
      <path
         style="fill:none;fill-rule:evenodd;stroke:#808080;stroke-width:0.1;stroke-linecap:butt;stroke-linejoin:miter;stroke-miterlimit:4;stroke-dasharray:none;stroke-opacity:1"
         d="M 90.980669,346.98066 249.37258,505.37258"
         id="path4705"
         inkscape:connector-curvature="0"
         sodipodi:nodetypes="cc" />
      <path
         sodipodi:nodetypes="cc"
         inkscape:connector-curvature="0"
         id="path4707"
         d="M 288,555.71281 400,749.7025"
         style="fill:none;fill-rule:evenodd;stroke:#808080;stroke-width:0.1;stroke-linecap:butt;stroke-linejoin:miter;stroke-miterlimit:4;stroke-dasharray:none;stroke-opacity:1" />
      <path
         style="fill:none;fill-rule:evenodd;stroke:#808080;stroke-width:0.1;stroke-linecap:butt;stroke-linejoin:miter;stroke-miterlimit:4;stroke-dasharray:none;stroke-opacity:1"
         d="M 144,306.2975 256,500.28719"
         id="path4709"
         inkscape:connector-curvature="0"
         sodipodi:nodetypes="cc" />
      <path
         style="fill:none;fill-rule:evenodd;stroke:#808080;stroke-width:0.1;stroke-linecap:butt;stroke-linejoin:miter;stroke-miterlimit:4;stroke-dasharray:none;stroke-opacity:1"
         d="m 280.28221,558.90963 57.97546,216.36738"
         id="path4711"
         inkscape:connector-curvature="0"
         sodipodi:nodetypes="cc" />
      <path
         sodipodi:nodetypes="cc"
         inkscape:connector-curvature="0"
         id="path4713"
         d="m 205.74233,280.72299 57.97546,216.36738"
         style="fill:none;fill-rule:evenodd;stroke:#808080;stroke-width:0.1;stroke-linecap:butt;stroke-linejoin:miter;stroke-miterlimit:4;stroke-dasharray:none;stroke-opacity:1" />
    </g>
  </g>
  <path
     style="fill:#1a1a1a;fill-opacity:1;stroke:none;stroke-width:2;stroke-linecap:butt;stroke-miterlimit:4;stroke-dasharray:none;stroke-dashoffset:0"
     inkscape:transform-center-x="-1.1456857e-05"
     inkscape:transform-center-y="1.0185716"
     d="m 288.00001,240.00001 4.6188,-8 4.6188,-8 -9.2376,-0.19186 -9.2376,0.19186 4.6188,8 z"
     id="path6898"
     inkscape:connector-curvature="0"
     sodipodi:nodetypes="ccccccc" />
</svg>
